<svg xmlns="http://www.w3.org/2000/svg" width="32" height="32" viewBox="0 0 32 32"><path d="M30.861 9.979c-3.267-8.184-12.571-12.124-20.779-8.798-8.207 3.326-12.211 12.657-8.943 20.84 3.268 8.185 12.57 12.123 20.777 8.797 8.208-3.324 12.213-12.655 8.945-20.839zm-14.15 3.968l4.376-.231v3.007h-4.31c.117 4.487.295 9.813.295 9.813h-3.662l-.309-9.813h-2.295v-2.465l2.212-.117-.048-1.56s-.426-3.068.822-4.931c1.359-2.03 3.255-3.205 7.294-.987l.105 3.551s-4.562-2.613-4.512 1.923c.009.509.016 1.125.032 1.81z"/></svg>