<svg xmlns="http://www.w3.org/2000/svg" width="32" height="32" viewBox="0 0 32 32"><g><path d="M31.816 13.521c-1.323-8.728-9.479-14.695-18.215-13.326-8.735 1.369-14.743 9.554-13.418 18.284 1.325 8.729 9.48 14.694 18.215 13.326 8.736-1.369 14.745-9.555 13.418-18.284zm-15.611-4.447l-.294.115c.213.248.393.527.531.837.939 2.09-.364 4.711-2.91 5.855-1.442.646-2.975.682-4.203.209-.503.584-.731 1.312-.584 1.982.248-.15.508-.288.781-.411 2.872-1.29 6.059-.425 7.119 1.935 1.06 2.357-.411 5.315-3.283 6.605s-6.059.424-7.118-1.934c-.658-1.465-.341-3.158.681-4.543l-.174-.336c-.651-1.451-.223-3.157.951-4.448-.191-.233-.353-.492-.48-.775-.939-2.091.364-4.713 2.91-5.855.87-.391 1.772-.559 2.621-.526-.208-1.022.467-2.17 1.658-2.705 1.343-.604 2.834-.198 3.33.904.495 1.104-.193 2.488-1.536 3.091zm9.212 1.873c-.287.158-1.683.201-1.683.201s-.307 1.742-.467 1.816c-.162.074-1.816.376-1.972.153-.155-.224-.144-1.769-.144-1.769s-1.678.015-1.807-.2c-.13-.214.004-1.661.139-1.845.134-.185 1.926-.39 1.926-.39s.191-1.902.464-2.055c.272-.153 2.028-.398 2.125-.197.095.201-.13 2.031-.13 2.031s1.861-.03 2.035.184c.178.216-.199 1.913-.486 2.071z"/><ellipse transform="matrix(-.912 .41 -.41 -.912 27.747 18.411)" cx="11.901" cy="12.179" rx="2.735" ry="2.246"/><ellipse transform="matrix(.41 .912 -.912 .41 26.762 2.506)" cx="11.445" cy="21.933" rx="2.534" ry="3.086"/></g></svg>