<svg xmlns="http://www.w3.org/2000/svg" width="32" height="32" viewBox="0 0 32 32"><path d="M18.436 16.465l.02-.336c0-1.426-.989-2.581-2.21-2.581-1.223 0-2.213 1.155-2.213 2.581l.012.26c-6.81.951-12.053 6.798-12.053 13.871h28.016c0-6.906-4.999-12.641-11.572-13.795zM8.023 37.37h28.016v1.721h-28.016zM9.359 13.022c.202.221.454.367.708.446.255.079.517.108.771.079-.474-.161-.906-.434-1.088-.805-.189-.359-.128-.782.013-1.192.147-.414.376-.819.629-1.213.254-.394.537-.779.835-1.157.31-.403.604-.829.857-1.286.249-.458.468-.947.573-1.497.051-.271.074-.561.024-.854-.046-.292-.168-.586-.367-.809-.199-.221-.45-.368-.706-.446-.256-.079-.518-.107-.771-.079.472.16.907.434 1.087.806.189.359.126.78-.016 1.191-.146.415-.373.819-.627 1.212-.254.395-.538.779-.834 1.159-.31.405-.604.827-.857 1.285-.25.458-.469.949-.573 1.496-.052.272-.075.563-.026.855.052.294.173.587.368.809zM14.521 10.565c.2.22.452.368.706.446.259.08.52.107.771.08-.473-.16-.906-.435-1.086-.804-.191-.363-.129-.783.014-1.194.144-.414.374-.819.627-1.211.256-.395.538-.78.835-1.158.311-.403.604-.828.857-1.285.248-.458.471-.949.574-1.498.052-.271.072-.561.023-.855-.046-.29-.169-.585-.366-.808-.199-.22-.451-.37-.706-.448-.257-.077-.52-.105-.772-.077.473.161.907.434 1.087.805.189.363.127.781-.015 1.194-.146.412-.374.818-.628 1.21-.254.396-.534.78-.831 1.159-.312.403-.605.828-.859 1.286-.247.456-.467.946-.573 1.496-.049.272-.071.563-.023.854.046.29.167.586.365.808zM19.82 13.022c.2.221.451.367.707.446s.518.108.77.079c-.472-.161-.905-.434-1.088-.805-.188-.359-.127-.782.015-1.192.146-.414.376-.819.628-1.213.255-.394.537-.779.834-1.157.312-.403.605-.829.856-1.286.25-.458.472-.947.575-1.497.052-.271.074-.561.025-.854-.048-.292-.17-.586-.365-.809-.201-.221-.452-.368-.709-.446-.256-.079-.518-.107-.771-.079.474.16.908.434 1.086.806.192.359.127.78-.013 1.191-.146.415-.374.819-.628 1.212-.255.395-.539.779-.832 1.159-.313.405-.607.827-.856 1.285-.252.458-.471.949-.576 1.496-.051.272-.073.563-.023.855.047.294.166.587.365.809z"/></svg>