<svg xmlns="http://www.w3.org/2000/svg" width="32" height="32" viewBox="0 0 32 32"><path fill="#F5F6F6" d="M26.413 9.214l-6.787.075-3.328 5.917 3.46 5.839 6.787-.075 3.329-5.917-3.461-5.839zm-.464 10.748l-5.616.063-2.863-4.832 2.753-4.896 5.616-.063 2.863 4.832-2.753 4.896zM15.321 14.608l3.327-5.917-3.461-5.841-6.786.078-3.328 5.916 3.46 5.839 6.788-.075zm-6.324-10.673l5.619-.063 2.861 4.832-2.753 4.896-5.616.064-2.863-4.833 2.752-4.896zM8.548 15.953l-3.328 5.917 3.46 5.841 6.788-.076 3.327-5.917-3.46-5.842-6.787.077zm6.322 10.674l-5.616.063-2.863-4.834 2.752-4.896 5.618-.064 2.862 4.834-2.753 4.897z"/></svg>