<svg xmlns="http://www.w3.org/2000/svg" width="32" height="32" viewBox="0 0 32 32"><g fill="#F5F6F6"><path d="M27.98 6.591l-1.49-1.49 1.1-1.873-.438-.438-1.916 1.058-1.785-1.786c-1.24-1.241-4.285 2.087-4.285 2.087l4.461.638-.707 3.116 2.936-.886-.063 3.758s3.318-3.051 2.187-4.184zM23.061 5.219l-3.828-.548s-9.532 5.868-13.077 9.735c-.094.102-1.262 1.274-1.262 1.274-2.71 2.711-2.71 7.107 0 9.819 2.712 2.712 7.108 2.712 9.819 0 .282-.282.692-.585.917-.901 6.669-7.314 9.554-12.985 9.554-12.985l.068-3.941-2.947.889.756-3.342z"/></g></svg>