<svg xmlns="http://www.w3.org/2000/svg" width="32" height="32" viewBox="0 0 32 32"><g fill="#F5F6F6"><path d="M5.371 10.83c.597-.406.752-1.221.347-1.815-.409-.598-2.464-1.294-2.464-1.294s-.106 2.167.301 2.765c.407.597 1.22.751 1.816.344zM12.41 8.255c.75-.257 1.152-1.071.896-1.823-.257-.752-2.23-2.088-2.23-2.088s-.746 2.267-.489 3.016c.257.751 1.072 1.153 1.823.895zM26.653 10.848c.585.423 1.402.292 1.825-.291.424-.584.382-2.755.382-2.755s-2.075.634-2.499 1.218c-.423.586-.293 1.404.292 1.828zM27.433 13.626c.698-.188 2.031-1.899 2.031-1.899s-2.014-.815-2.71-.627c-.118.032-.225.083-.324.142.011-.107.013-.218-.005-.331-.115-.714-1.678-2.217-1.678-2.217s-1.019 1.916-.905 2.628c.112.713.783 1.199 1.497 1.085.167-.027.32-.087.457-.168l-.005.145c-.299.409-.58.854-.842 1.329l-.094.045c-.022-.149-.068-.297-.145-.436-.356-.647-2.38-1.553-2.38-1.553s-.316 2.193.04 2.84c.343.627 1.116.863 1.752.553l.005.047.032.111c-.196.449-.38.906-.552 1.364l-.054.05c-.013-.232-.076-.466-.207-.679-.207-.338-.856-.724-1.466-1.03l.217-.489s-1.955-.226-2.997-.006l.044-.365c.354.118.755.101 1.115-.079.727-.362 1.812-2.543 1.812-2.543s-1.608-.3-2.588-.208l.095-.791c.451.462 1.171.579 1.752.237.685-.402 1.597-2.606 1.597-2.606s-2.368-.274-3.053.13c-.115.067-.212.153-.302.245-.02-.118-.051-.235-.102-.349-.329-.723-2.425-1.859-2.425-1.859s-.521 2.325-.192 3.048c.328.724 1.181 1.042 1.903.713.169-.078.313-.185.436-.311l.036.154c-.196.521-.363 1.076-.505 1.656l-.085.073c-.069-.15-.159-.294-.281-.42-.565-.582-2.975-.951-2.975-.951l.079.517c-.7.145-1.505.366-1.811.66-.124.123-.219.263-.291.412l-.084-.077c-.123-.583-.273-1.143-.456-1.667l.041-.152c.119.128.26.24.427.322.713.35 1.573.057 1.924-.656.349-.712-.103-3.054-.103-3.054s-2.129 1.076-2.479 1.788c-.055.112-.089.228-.113.345-.086-.094-.18-.183-.293-.254-.672-.421-3.048-.218-3.048-.218s.846 2.229 1.519 2.653c.571.358 1.294.261 1.759-.186l.071.791c-.977-.119-2.593.133-2.593.133s1.02 2.214 1.736 2.597c.354.19.753.219 1.111.112l.033.366c-1.034-.252-2.998-.081-2.998-.081l.202.495c-.617.289-1.279.654-1.496.987-.137.209-.206.44-.227.672l-.052-.051c-.157-.464-.328-.927-.512-1.383l.036-.109.006-.047c.627.329 1.405.115 1.768-.5.376-.636.123-2.838.123-2.838s-2.048.845-2.424 1.48c-.081.137-.129.283-.157.433l-.092-.047c-.249-.482-.517-.937-.802-1.354l-.001-.146c.135.086.286.148.451.181.711.136 1.396-.33 1.528-1.039.139-.711-.824-2.656-.824-2.656s-1.608 1.457-1.742 2.168c-.021.111-.022.222-.015.329-.099-.062-.203-.116-.32-.151-.691-.208-2.727.545-2.727.545s1.282 1.752 1.974 1.959c.587.178 1.198-.082 1.498-.587l.254.679c-.886.131-2.243.741-2.243.741s1.43 1.694 2.15 1.856c.358.083.714.011 1.002-.17l.118.313c-.969.03-2.649.653-2.649.653s1.442 1.965 2.219 2.197c.501.15 1.018.017 1.385-.303l.272.73-.08-.035c-.774-.24-3.066.589-3.066.589s1.424 1.977 2.199 2.216c.68.211 1.396-.098 1.723-.702l.523 1.395s-.114-.763-.358-1.918l.007-.054c.084.099.177.19.289.266.568.383 1.305.309 1.793-.126.624.287 1.358.146 1.829-.344l.146 1.631s.102-.842.18-2.135l.024-.055c.06.127.131.251.227.363.563.653 1.533.742 2.207.22.567.158 1.199.005 1.624-.461.099-.109.175-.23.238-.355l.021.055c.04 1.297.117 2.141.117 2.141l.195-1.627c.456.505 1.187.665 1.818.399.476.449 1.208.542 1.79.177.112-.071.207-.161.293-.254l.007.055c-.278 1.146-.414 1.904-.414 1.904l.563-1.379c.309.612 1.016.943 1.701.754.781-.219 2.263-2.152 2.263-2.152s-2.267-.896-3.047-.679l-.081.032.294-.722c.358.331.87.479 1.376.344.784-.208 2.283-2.132 2.283-2.132s-1.663-.672-2.63-.729l.126-.311c.283.188.638.271.998.2.724-.141 2.204-1.793 2.204-1.793s-1.338-.649-2.221-.808l.274-.669c.286.516.89.792 1.482.633zm-11.179-.323c.547.563 1.434.587 2.018.073l.019.05.067.106c-.077.535-.139 1.074-.187 1.608l-.041.068c-.082-.243-.216-.472-.417-.659-.066-.062-.156-.119-.259-.173l.083-.374s-.35.026-.825.088c-.424-.123-.896-.218-1.307-.288.102-.06.2-.126.288-.213.129-.123.247-.341.354-.599.064.129.134.237.207.313zm-2.491 2.137l-.039-.069c-.032-.536-.079-1.076-.14-1.612l.069-.104.021-.05c.226.21.5.337.786.378l.128.588c-.158.068-.295.143-.389.226-.206.18-.347.404-.436.643zm-4.41 3.973c-.101.149-.165.311-.204.476-.129-.527-.279-1.096-.448-1.68l.04-.207.205.165c.241.159.513.233.781.236l.213.52c-.263.161-.479.328-.587.49zm3.729-.908c-.207-.134-.561-.212-.962-.259l-.011-.302s-.283.099-.665.253c-.33-.013-.656-.012-.94-.004.185-.111.349-.258.474-.449.075-.116.133-.285.176-.48.126.158.251.288.371.363.487.305 1.073.315 1.556.083l.076.854-.075-.059zm.687.449c.018-.598.024-1.242.016-1.91l.102-.208.17.236c.136.154.298.272.472.363l-.174-.019s.068.369.189.861c-.172.069-.318.146-.419.231-.15.13-.266.283-.356.446zm3.908-.688c-.07-.063-.168-.125-.28-.182l.076-.324s-.32.021-.763.07c-.364-.103-.766-.186-1.137-.248.232-.045.456-.143.655-.292.547.133 1.147-.019 1.561-.46l.175-.23.097.208c-.029.669-.042 1.313-.042 1.911-.085-.165-.196-.319-.342-.453zm1.043.025l-.078.057.103-.851c.476.247 1.063.254 1.559-.036.121-.071.25-.197.381-.354.038.198.09.368.162.486.119.194.278.347.459.463-.284-.016-.609-.025-.939-.024-.378-.165-.657-.271-.657-.271l-.021.301c-.403.034-.759.102-.969.229zm3.129.511l.227-.513c.27.005.543-.061.789-.212l.211-.161.033.21c-.188.579-.354 1.141-.498 1.664-.035-.166-.095-.329-.19-.479-.104-.165-.315-.339-.572-.509zM19.693 8.067c.742.278 1.571-.097 1.848-.84.28-.744-.398-3.031-.398-3.031s-2.013 1.279-2.292 2.021c-.278.742.098 1.572.842 1.85z"/></g></svg>