<svg xmlns="http://www.w3.org/2000/svg" width="32" height="32" viewBox="0 0 32 32"><g fill="#F5F6F6"><path d="M9.589 10.496c-4.898 2.167-8.111 6.774-8.111 6.774.026.029 2.435 2.786 4.428 2.06l.067.492c-.251.091-.508.132-.768.132-1.377 0-2.815-1.141-3.559-1.834 1.052 1.315 3.897 4.552 7.594 6.31 2.76-4.704.781-12.411.349-13.934zm-2.991 7.219c-.679 0-1.231-.552-1.231-1.23 0-.68.552-1.23 1.231-1.23.68 0 1.231.551 1.231 1.23 0 .678-.552 1.23-1.231 1.23zM25.479 15.754c-2.156-2.377-6.453-6.277-11.399-6.277-1.382 0-2.714.308-3.962.799.423 1.436 2.551 9.36-.355 14.387 1.35.575 2.803.942 4.317.942 5.243 0 9.751-4.379 11.764-6.683l3.975 2.27v-7.302l-4.34 1.864zM15.692 3.717c.247.296.509.571.777.847.259.272.494.538.698.816.198.283.332.586.359.877.037.291-.051.589-.233.878-.183.288-.439.549-.725.797l.023.049c.38-.094.731-.291 1.026-.58.294-.284.51-.727.479-1.188-.03-.461-.271-.845-.533-1.145-.262-.307-.585-.542-.914-.732-.316-.187-.61-.42-.818-.722-.209-.301-.284-.671-.262-.981.01-.157.043-.305.089-.456.053-.149.128-.292.222-.436.188-.285.44-.543.712-.809l-.023-.048c-.382.09-.728.3-1.012.597-.279.292-.492.73-.43 1.17.056.447.33.774.565 1.066zM20.065 3.717c.245.296.506.571.775.847.258.272.496.538.699.816.196.283.328.586.359.877.036.291-.052.589-.235.878-.182.288-.438.549-.721.797l.021.049c.381-.094.732-.291 1.025-.58.295-.284.512-.727.479-1.188-.03-.461-.272-.845-.531-1.145-.264-.307-.588-.542-.916-.732-.315-.187-.613-.42-.817-.722-.21-.301-.286-.671-.263-.981.011-.157.043-.305.088-.456.052-.149.129-.292.223-.436.188-.285.441-.543.714-.809l-.024-.048c-.384.09-.73.3-1.016.597-.275.292-.489.73-.428 1.17.057.447.331.774.568 1.066zM10.923 3.717c.244.296.505.571.774.847.258.272.494.538.697.816.201.283.329.586.359.877.037.291-.051.589-.234.878-.181.288-.439.549-.722.797l.024.049c.378-.094.729-.291 1.022-.58.296-.284.512-.727.48-1.188-.03-.461-.271-.845-.534-1.145-.263-.307-.586-.542-.914-.732-.316-.187-.611-.42-.818-.722-.209-.301-.284-.671-.262-.981.008-.157.041-.305.089-.456.052-.149.129-.292.222-.436.187-.285.439-.543.714-.809l-.024-.048c-.384.09-.73.3-1.013.597-.277.292-.492.73-.432 1.17.057.447.331.774.572 1.066z"/></g></svg>