<svg xmlns="http://www.w3.org/2000/svg" width="32" height="32" viewBox="0 0 32 32"><g><path fill-rule="evenodd" clip-rule="evenodd" d="M5.707 27.155h1.398v-2.705h-1.398v-1.192h1.398v-2.455h-1.398v-1.194h1.398v-2.518h-1.398v-1.193h1.398v-2.52h-1.398v-1.193h1.398v-2.27h-1.398v-1.193h1.398v-4.147h-2.791v25.879h2.791v-2.102h-1.398zM7.105 8.722h1.181v1.192h-1.181zM7.105 12.185h1.181v1.193h-1.181zM7.105 15.898h1.181v1.192h-1.181zM7.105 19.609h1.181v1.193h-1.181zM7.105 23.258h1.181v1.192h-1.181zM7.105 27.155h1.181v1.196h-1.181zM29.154 27.811v-25.268c0-.797-.998-.997-.998-.997h-21.031c-1.828 0-2.539 1.198-2.81 2.127h21.648c1.128 0 1.099.993 1.099.993v23.1h-1.311v-23.191h-17.465v4.147h1.197v1.192h-1.197v2.271h1.197v1.193h-1.197v2.52h1.197v1.192h-1.197v2.519h1.197v1.193h-1.197v2.455h1.197v1.192h-1.197v2.705h1.197v1.196h-1.197v2.103h17.465v-1.518h1.279v.004l1.058-.004c1.147.002 1.066-1.124 1.066-1.124zm-6.719-12.604c-.825.824-1.897 1.141-2.635.845l.045.048-1.547 1.549 3.463 3.462s.095.763-.763.763l-3.466-3.463-3.474 3.479s-.766.101-.766-.76l3.482-3.481-1.567-1.566.007-.012c-.713.287-1.152.583-1.93-.14l-.003.002-2.344-2.344.372-.377 2.458 2.083.439-.446-2.254-2.368.358-.358 2.36 2.268.52-.521-2.147-2.388.392-.392 2.343 2.348v.002c.725.775.429 1.215.141 1.93l.049-.052 1.564 1.568 1.554-1.547.008.008c-.298-.738.021-1.812.845-2.637 1.005-1.004 2.376-1.257 3.063-.567.688.689.436 2.06-.567 3.064z"/></g></svg>