<svg xmlns="http://www.w3.org/2000/svg" width="32" height="32" viewBox="0 0 32 32"><g><path d="M19.84 17.787l-.424-.422 3.657-3.673.424.422zM17.72 15.669l3.665-3.666.422.422-3.665 3.666zM18.566 16.514l3.664-3.666.423.423-3.664 3.666zM24.12 10.754c.025-.25.038-.504.038-.761 0-4.418-3.583-8.003-8.002-8.003-4.397 0-7.962 3.544-8.002 7.931-2.153 1.063-3.635 3.278-3.635 5.841 0 2.709 1.653 5.03 4.006 6.013v8.246h16.004v-7.679c2.289-.893 3.908-3.119 3.908-5.722.001-2.756-1.815-5.089-4.317-5.866zm-1.43 6.077c-1.507 1.506-3.429 2.102-4.646 1.536l-.234.235.721.725.249-.248 3.886 3.886-1.764 1.762-3.884-3.885.246-.247-.721-.722-.378.376.393.39-4.204 4.202-1.692-1.691 4.203-4.202.391.391.376-.377-1.751-1.748c-.965.965-1.691.845-1.691.845l-3.668-3.669 3.807-3.806 3.666 3.664s.185.662-.847 1.693l1.752 1.752.235-.235c-.563-1.217.031-3.139 1.537-4.645 1.751-1.752 4.071-2.271 5.18-1.163 1.111 1.109.59 3.43-1.162 5.181z"/></g></svg>