<svg xmlns="http://www.w3.org/2000/svg" width="32" height="32" viewBox="0 0 32 32"><path d="M26.221 9.062l-7.76.086-3.806 6.766 3.958 6.676 7.76-.086 3.807-6.765-3.959-6.677zm-.53 12.29l-6.422.074-3.274-5.526 3.149-5.599 6.42-.072 3.273 5.525-3.146 5.598zM13.539 15.23l3.803-6.765-3.955-6.678-7.762.088-3.805 6.765 3.957 6.676 7.762-.086zm-7.232-12.204l6.424-.072 3.272 5.525-3.147 5.598-6.422.073-3.273-5.525 3.146-5.599zM5.794 16.769l-3.805 6.765 3.956 6.68 7.762-.088 3.805-6.766-3.957-6.68-7.761.089zm7.23 12.204l-6.423.072-3.273-5.527 3.147-5.598 6.424-.072 3.272 5.525-3.147 5.6z"/></svg>