<svg xmlns="http://www.w3.org/2000/svg" width="32" height="32" viewBox="0 0 32 32"><g fill="#F5F6F6"><path d="M29.634 17.829v-.002l.029-.275c-3.672 2.93-7.795 3.544-11.544 3.113l.003-.004c.665.074 1.34.116 2.023.116 3.133 0 6.414-.856 9.419-3.249-.487-1.844-2.595-4.045-5.67-4.045-.817 0-1.701.156-2.641.515-.842.322-1.504.46-2.038.46-.463 0-.831-.104-1.143-.283l-.307-.208c-1.207-.982-1.563-3.17-4.063-4.123-2.047-.926-4.115-1.372-5.917-1.372-2.457 0-4.415.838-5.138 2.44-.27.598-.345 1.257-.25 1.939l-.041-.133v-.136c-.032.141-.031.282 0 .418v.056l.105.091-.133-.114.023.303-.023-.021-.007.387.034-.346.001.096v6.572s6.437 6.27 15.21 5.85c0 0 10.364.067 12.107-3.266v-4.306c.003-.153-.013-.31-.039-.473zm-.726-.502c-1.998 1.511-4.258 2.434-6.732 2.756l3.908-5.586c1.45.628 2.433 1.814 2.824 2.83zm-3.655-3.114l-4.175 5.975c-.31.016-.619.028-.933.028-.56 0-1.109-.031-1.648-.083l4.24-5.976c.394-.073.778-.111 1.157-.111.483-.001.937.062 1.359.167zm-3.809.313l-3.899 5.492c-1.055-.155-2.053-.388-2.959-.655l3.212-4.695c.386.217.844.352 1.418.352.63 0 1.358-.161 2.228-.494zm-4.311-.379l-3.387 4.953c-.681-.229-1.296-.467-1.835-.693l-.611-.27 4.247-6.209c.236.308.439.627.641.943.289.447.581.902.945 1.276zm-11.204.933l3.882-5.863c.755.131 1.532.334 2.301.598l-4.392 6.42c-.645-.393-1.245-.785-1.791-1.155zm-.129.589l-.122-.085.122.085zm-.339-.232l-.111-.076.111.076zm2.22 1.43l-.164-.102.164.102zm-.397-.243l-.159-.098.159.098zm-.391-.242l-.148-.093.148.093zm-.379-.24l-.136-.09.136.09zm-.361-.238l-.132-.088.132.088zm2.354 1.443l-.17-.099.17.099zm-.418-.24l-.167-.099.167.099zm3.126 1.608l-.15-.068.15.068zm-.468-.214l-.187-.089.187.089zm2.744-8.137l.017.004c.618.238 1.093.561 1.478.927l-4.458 6.479c-.729-.355-1.423-.728-2.081-1.107l4.506-6.529.521.22.017.006zm-3.208 7.917l-.19-.095.19.095zm-.458-.228l-.186-.096.186.096zm-.445-.232l-.187-.1.187.1zm-.439-.234l-.179-.099.179.099zm-5.781-6.441c.605-1.344 2.293-2.113 4.627-2.113.335 0 .681.022 1.028.055l-3.576 5.509c-1.088-.778-1.885-1.43-2.276-1.759l-.009-.062c-.081-.595-.012-1.145.206-1.63zm1.975 4.064l-.1-.073.1.073zm-.31-.221l-.09-.068.09.068zm-.303-.22l-.073-.052.073.052zm-.279-.205l-.064-.05.064.05zm-.27-.206l-.048-.036.048.036zm-.262-.198l-.023-.019.023.019zm-.797-.635l-.049-.041.049.041zm-.146-.119l-.062-.052.062.052zm-.227-.191l-.063-.056.063.056zm.107.09l-.065-.052.065.052zm12.479 6.795c.943.247 1.938.439 2.953.555l.011.007c-1.023-.118-2.016-.312-2.964-.562zm-.513-.141l.286.079-.286-.079zM15.751 7.704c.216.318.479.595.809.785l.042-.038c-.336-.65-.667-1.269-.723-1.879-.043-.292.005-.643.247-.899.114-.127.261-.226.416-.305.155-.073.342-.15.505-.262.161-.111.321-.248.438-.418.119-.17.199-.367.251-.564.1-.4.09-.812-.001-1.188-.092-.377-.244-.727-.436-1.051-.192-.318-.415-.621-.696-.872l-.044.032c.231.695.47 1.36.591 2.016.059.327.106.65.064.959-.043.307-.155.597-.369.855-.109.126-.24.231-.397.329-.156.103-.307.213-.448.339-.143.126-.277.269-.387.441-.111.175-.183.38-.201.587-.018.21.013.418.081.605.065.193.153.368.258.528zM18.36 10.312c.215.321.479.596.81.788l.039-.04c-.335-.651-.664-1.27-.723-1.876-.041-.295.006-.646.248-.902.113-.127.262-.225.417-.304.155-.078.341-.151.503-.264.163-.109.319-.248.439-.418.118-.169.2-.366.251-.565.102-.4.087-.811 0-1.186-.094-.38-.247-.73-.437-1.053-.196-.32-.417-.621-.697-.875l-.044.033c.23.698.473 1.36.59 2.018.061.326.106.65.065.958-.042.305-.153.598-.369.854-.106.131-.237.233-.396.332-.156.102-.31.213-.448.34-.146.123-.28.269-.39.44-.107.173-.181.38-.202.589-.013.209.017.417.084.606.066.19.153.365.26.525zM21.946 10.312c.216.321.479.596.809.788l.04-.04c-.334-.651-.666-1.27-.723-1.876-.04-.295.007-.646.248-.902.116-.127.262-.225.416-.304.158-.078.343-.151.504-.264.164-.109.322-.248.439-.418.12-.169.201-.366.251-.565.104-.4.091-.811-.001-1.186-.092-.38-.246-.73-.436-1.053-.191-.32-.417-.621-.696-.875l-.046.033c.232.698.472 1.36.591 2.018.062.326.107.65.067.958-.042.305-.155.598-.371.854-.105.131-.236.233-.398.332-.153.102-.306.213-.444.34-.146.123-.28.269-.389.44-.11.173-.185.38-.203.589-.014.208.016.417.084.605.066.191.153.366.258.526z"/></g></svg>