<svg xmlns="http://www.w3.org/2000/svg" width="32" height="25.018" viewBox="0 0 32 25.018"><g fill="#fff"><ellipse transform="matrix(-.896 .445 -.445 -.896 30.652 36.913)" cx="10.997" cy="22.051" rx="3.31" ry="2.848"/><ellipse transform="matrix(-.896 .445 -.445 -.896 54.475 31.628)" cx="23.527" cy="22.204" rx="3.31" ry="2.676"/><path d="M29.039 11.464l2.961-10.215c-11.539-2.103-24.995 1.128-24.995 1.128l.005.015c-.707-1.706-1.187-2.392-1.187-2.392s-3.43 1.117-5.823 2.394c0 0 .08 1.196.797 1.835 0 0 1.95-.8 4.227-1.332 2.091 5.875 2.953 14.175 2.953 14.175 14.837-1.754 19.705 0 19.705 0l.877-3.43c-9.654-1.596-18.429 0-18.429 0-.15-.78-.302-1.508-.455-2.21l.009.032c6.289-1.787 19.355 0 19.355 0z"/></g></svg>