<svg xmlns="http://www.w3.org/2000/svg" width="26.186" height="32" viewBox="0 0 26.186 32"><g><path d="M26.178 19.32c.35-.544-11.448-19.436-12.12-19.319-.293.051-3.049 4.093-6.044 8.692 0 0-.461-3.125-.859-3.379-.399-.252-3.755.804-4.073 1.243-.318.439 1.709 7.157 1.709 7.157-2.679 4.238-4.871 7.889-4.79 8.189.053.194 1.849.146 4.469-.039 0 0 1.148 9.879 1.343 10.074.195.195 4.767-.133 4.767-.133-.209-1.693-.816-8.485 2.833-9.008 0 0 4.174-1.149 2.618 8.855 0 0 3.764.137 4.138-.113l3.348-11.697c1.581-.228 2.593-.416 2.661-.522z"/></g></svg>