<svg xmlns="http://www.w3.org/2000/svg" width="32" height="32" viewBox="0 0 32 32"><g><path d="M9.535 19.973l4.494-1.054-1.438-5.184c-3.203 2.369-3.056 6.238-3.056 6.238zM31.816 13.521c-1.323-8.728-9.479-14.695-18.215-13.326-8.735 1.369-14.743 9.554-13.418 18.284 1.325 8.729 9.48 14.694 18.215 13.326 8.736-1.369 14.745-9.555 13.418-18.284zm-12.484 7.609l-.625-3.31-.805-4.196 2.72-.617.657 4.211 2.896-.68v-.002s-.875-5.715-7.882-4.354l-.512.114 1.417 5.878.701 3.303-11.62 2.823s-2.112-10.16 5.291-14.24l-.84-3.03 3.462-1.33.752 3.118c.225-.051.454-.098.69-.14 12.16-2.143 12.366 10.345 12.366 10.345l-8.668 2.107z"/></g></svg>