<svg xmlns="http://www.w3.org/2000/svg" width="32" height="32" viewBox="0 0 32 32"><g><path d="M30.861 9.978c-3.267-8.183-12.571-12.124-20.779-8.797-8.207 3.325-12.211 12.657-8.944 20.84 3.269 8.186 12.571 12.123 20.778 8.799 8.208-3.326 12.213-12.658 8.945-20.842zm-13.433 13.423l1.523.019-.049.572-1.314.021.639.801-.395.44-1.061-1.117-1.478.617-.075-.389 1.416-.927-.86-2.756c-.703.209-1.37.312-2.002.328l.793 4.634 1.489.316-.156.554-1.294-.236.471.906-.471.356-.823-1.304-1.568.317v-.393l1.568-.632-.49-4.521c-.954-.041-1.821-.277-2.602-.641.312-1.715 1.779-3.199 3.781-3.609 2.078-.424 4.082.44 4.989 2.008-.748.59-1.638 1.127-2.7 1.568l-.437.172 1.106 2.896zm5.593-10.214v-.018c-.405 1.619-1.311 3.704-3.317 5.395-.74-1.881-2.938-2.986-5.231-2.517-2.264.463-3.847 2.3-3.844 4.291-3.641-1.74-5.394-6.225-5.394-6.225 5.756.51 10.374-2.717 11.115-4.266.823-1.718 1.117-3.376 3.823-3.376 2.288 0 2.929 2.121 3.104 3.306.005.002 2.99.714 3.453.999.461.285-3.709 2.411-3.709 2.411zM20.65 8.88c-.68-.229-1.447.252-1.721 1.074-.271.82.059 1.668.736 1.896.677.228 1.447-.254 1.718-1.072.274-.82-.055-1.67-.733-1.898z"/></g></svg>