<?xml version="1.0" encoding="utf-8"?>
<!-- Generator: Adobe Illustrator 15.0.0, SVG Export Plug-In . SVG Version: 6.00 Build 0)  -->
<!DOCTYPE svg PUBLIC "-//W3C//DTD SVG 1.1//EN" "http://www.w3.org/Graphics/SVG/1.1/DTD/svg11.dtd">
<svg version="1.1" id="Layer_1" xmlns="http://www.w3.org/2000/svg" xmlns:xlink="http://www.w3.org/1999/xlink" x="0px" y="0px"
	 width="595.28px" height="260.869px" viewBox="0 0 595.28 260.869" enable-background="new 0 0 595.28 260.869"
	 xml:space="preserve">
<g>
	<path fill="#19A2A3" d="M380.953,68.322c-0.887-1.146-2.047-1.721-3.443-1.721c-1.84,0-3.426,0.549-4.736,1.639
		c-1.311,1.092-2.408,2.436-3.275,4.032c-0.865,1.594-1.521,3.315-1.979,5.158c-0.449,1.849-0.674,3.505-0.674,4.952
		c0,1.629,0.492,2.987,1.473,4.084c0.98,1.086,2.275,1.626,3.906,1.626c1.346,0,2.611-0.596,3.811-1.804
		c1.219-1.201,2.275-2.643,3.201-4.32c0.918-1.688,1.658-3.405,2.217-5.166c0.572-1.764,0.842-3.284,0.842-4.572
		C382.295,70.772,381.852,69.474,380.953,68.322"/>
	<path fill="#19A2A3" d="M367.863,103.415c0.939,0,1.814,0.069,2.6,0.402c0.779,0.335,1.176,1.104,1.176,2.382
		c0,1.227-0.574,3.467-1.73,6.797c-1.145,3.329-2.598,7.205-4.361,11.626c-1.764,4.423-3.643,9.072-5.664,13.938
		c-2.018,4.871-3.906,9.487-5.664,13.855c-1.762,4.368-3.227,8.138-4.363,11.337c-1.15,3.188-1.729,5.377-1.729,6.551
		c0,1.448,0.674,2.169,2.014,2.169c3.244,0,7.215-3.827,11.924-11.501c0.332-0.55,0.725-0.917,1.176-1.081
		c0.447-0.167,0.783-0.258,1.004-0.258c0.223,0,0.49,0.091,0.797,0.258c0.318,0.164,0.473,0.354,0.473,0.587
		c0,0.218-0.387,1.179-1.143,2.857c-0.758,1.673-1.879,3.452-3.361,5.326c-1.48,1.877-3.314,3.559-5.494,5.039
		c-2.191,1.484-4.641,2.229-7.389,2.229c-1.402,0-2.729-0.339-3.988-1.012c-1.258-0.678-2.326-1.555-3.189-2.645
		c-0.873-1.09-1.561-2.299-2.053-3.612c-0.508-1.314-0.76-2.618-0.76-3.911c0-1.675,0.482-4.152,1.469-7.423
		c0.982-3.273,2.158-6.896,3.52-10.875c1.365-3.976,2.918-8.103,4.623-12.392c1.713-4.271,3.254-8.223,4.65-11.833
		c1.412-3.608,2.586-6.706,3.535-9.276c0.955-2.574,1.422-4.229,1.422-4.956c0-0.559-0.047-0.975-0.16-1.259
		c-0.115-0.276-0.447-0.508-1.004-0.671c-0.563-0.167-1.449-0.276-2.654-0.333c-1.195-0.056-7.516-0.379-8.982-0.706
		c-2.178-0.485-3.602-0.998-4.152-1.611c-1.412,4.7-2.268,6.924-4.453,12.935c-2.18,6.023-4.842,12.165-7.98,18.432
		c-3.141,6.268-6.773,12.438-10.912,18.521c-4.143,6.065-8.758,11.447-13.852,16.157c-5.1,4.699-10.711,8.479-16.842,11.329
		c-6.13,2.86-12.805,4.29-20.022,4.29c-3.474,0-6.8-0.497-9.99-1.474c-3.191-0.983-6.021-2.559-8.483-4.739
		c-2.464-2.186-4.449-5.057-5.96-8.606c-1.514-3.559-2.269-7.913-2.269-13.056c0-5.488,0.844-11.186,2.523-17.093
		c1.678-5.904,3.805-11.863,6.379-17.884c2.573-6.017,5.313-12.006,8.231-17.968c2.903-5.961,5.651-11.75,8.225-17.374
		c2.574-5.634,4.705-11.017,6.381-16.172c1.677-5.144,2.55-9.854,2.514-14.107c-0.024-4.411-3.457-11.019-4.448-12.761
		c-1.429-2.482-4.053-5.398-6.271-7.41c-2.539-2.307-4.798-3.169-7.094-3.82c-3.309-0.96-6.754-2.373-14.067-2.139
		c-6.418,0.191-13.773,2.664-19.368,4.646c-10.401,3.691-23.969,3.906-39.717,15.32l-2.208-3.969
		c9.295-6.499,19.811-11.861,29.099-15.781c9.296-3.912,20.091-5.118,29.602-5.118c6.662,0,12.696,1.189,18.127,2.755
		c5.429,1.568,9.927,4.313,13.819,7.278c3.893,2.964,9.083,9.108,11.271,13.53c2.172,4.419,3.265,9.486,3.265,15.192
		c0,4.597-0.854,9.733-2.556,15.415c-1.709,5.674-3.85,11.608-6.424,17.795c-2.574,6.186-5.386,12.438-8.435,18.726
		c-3.059,6.294-5.863,12.364-8.444,18.224c-2.57,5.845-4.729,11.333-6.459,16.457c-1.741,5.12-2.606,9.438-2.606,12.978
		c0,6.537,1.929,11.151,5.797,13.844c3.854,2.691,8.813,4.042,14.857,4.042c6.102,0,11.895-1.729,17.382-5.167
		c5.485-3.444,10.577-7.856,15.28-13.225c4.699-5.387,8.924-11.374,12.639-17.976c3.727-6.605,6.914-13.111,9.572-19.514
		c2.656-6.411,4.703-12.32,6.129-17.72c1.422-5.405,0.787-5.138,0.787-8.222c-1.957-1.623-3.736-3.554-5.328-5.798
		c-1.602-2.241-2.971-4.614-4.115-7.133c-1.143-2.517-2.012-5.095-2.605-7.726c-0.586-2.625-0.879-5.144-0.879-7.551
		c0-3.645,0.779-6.713,2.354-9.203c1.566-2.486,4.002-3.729,7.311-3.729c2.736,0,4.867,0.978,6.42,2.93
		c1.533,1.963,2.691,4.287,3.439,6.979c0.758,2.682,1.215,5.47,1.389,8.352c0.17,2.887,0.252,5.25,0.252,7.098
		c0,2.41-0.029,5.127-0.078,8.146c-0.061,3.027-0.309,5.634-0.752,7.819c0,0,1.867,1.31,4.424,2.022
		c2.553,0.711,4.947,0.918,7.434,1.129C355.178,103.532,367.863,103.415,367.863,103.415"/>
	<path fill="#19A2A3" d="M370.377,163.579c0-1.847,0.408-4.192,1.223-7.05c0.803-2.855,1.85-5.979,3.109-9.365
		c1.26-3.385,2.602-6.887,4.025-10.495s2.775-7.081,4.029-10.407c1.262-3.332,2.301-6.426,3.113-9.271
		c0.807-2.873,1.215-5.218,1.215-7.061c0-2.4-0.727-3.806-2.184-4.201c-1.457-0.389-3.076-0.586-4.875-0.586
		c-0.945,0-1.426-0.312-1.426-0.928c0-0.672,0.307-1.002,0.924-1.002h15.287c1.955,0,3.412,0.605,4.367,1.805
		c0.941,1.201,1.422,2.563,1.422,4.066c0,1.016-0.195,2.359-0.592,4.039c-0.389,1.678-0.895,3.514-1.508,5.498
		c-0.619,1.991-1.293,4.042-2.057,6.17c-0.754,2.123-1.414,4.117-1.975,5.957c1.348-1.84,2.879-4.32,4.619-7.423
		c1.738-3.112,3.627-6.147,5.672-9.117c2.037-2.965,4.258-5.539,6.678-7.728c2.396-2.18,5.004-3.268,7.809-3.268
		c1.564,0,2.752,0.77,3.57,2.305c0.805,1.54,1.213,3.348,1.213,5.417c0,1.514-0.191,3.013-0.582,4.489
		c-0.4,1.486-0.943,2.857-1.648,4.115c-0.703,1.254-1.586,2.304-2.68,3.11c-1.1,0.813-2.313,1.216-3.654,1.216
		c-1.742,0-2.986-0.599-3.738-1.805c-0.758-1.205-1.135-2.505-1.135-3.901c0-1.96,0.49-3.878,1.469-5.752
		c0.979-1.872,1.928-3.684,2.814-5.423c-0.887,0-2.379,1.263-4.453,3.783c-2.07,2.52-4.363,5.732-6.885,9.652
		c-2.516,3.928-5.119,8.212-7.807,12.892c-2.682,4.681-5.15,9.253-7.391,13.725c-2.238,4.489-4.074,8.556-5.498,12.224
		c-1.424,3.658-2.143,6.363-2.143,8.103c0,2.283,0.6,3.751,1.809,4.368c1.195,0.61,2.256,0.921,3.148,0.921
		c2.293,0,4.371-0.528,6.211-1.596c1.846-1.061,3.396-2.223,4.666-3.486c1.258-1.263,2.318-2.432,3.193-3.524
		c0.861-1.093,1.457-1.643,1.801-1.643c0.334,0,0.496,0.23,0.496,0.669c-1.619,3.869-4.232,6.836-7.838,8.9
		c-3.623,2.086-7.725,3.104-12.316,3.104c-3.076,0-5.76-1.135-8.047-3.436C371.537,169.355,370.377,166.662,370.377,163.579"/>
	<path fill="#19A2A3" d="M467.109,109.258c0-1.174,0.313-2.418,0.938-3.74c0.602-1.311,1.502-2.414,2.68-3.313
		c-4.145,0.225-7.359,1.541-9.656,3.945c1.842,1.514,3.371,3.229,4.566,5.165c1.211,1.923,1.814,4.044,1.814,6.335
		c0,4.146-0.66,8.331-1.979,12.557c-1.316,4.223-3.279,8.037-5.873,11.418c-2.6,3.394-5.762,6.17-9.488,8.354
		c-3.719,2.178-7.994,3.277-12.816,3.277c-5.029,0-9.195-1.317-12.508-3.943c-1.73,3.068-2.594,5.706-2.594,7.894
		c0,2.74,1.035,4.84,3.102,6.294c2.074,1.452,4.531,2.179,7.389,2.179c3.08,0,6.055-0.323,8.939-0.963
		c2.893-0.634,5.813-0.963,8.779-0.963c4.359,0,8.006,1.032,10.912,3.104c2.91,2.074,4.375,5.515,4.375,10.325
		c0,5.489-1.268,10.502-3.795,15.037c-2.506,4.53-5.682,8.404-9.514,11.622c-3.834,3.225-8.08,5.688-12.729,7.394
		c-4.65,1.707-9.096,2.563-13.354,2.563c-5.141,0-9.523-1.376-13.139-4.12c-3.602-2.747-5.414-7.159-5.414-13.26
		c0-4.032,1.012-6.99,3.027-8.871c2.012-1.87,3.967-2.803,5.881-2.803c1.955,0,3.344,0.568,4.15,1.717
		c0.814,1.151,1.225,2.399,1.225,3.732c0,1.622-0.467,3.072-1.389,4.329c-0.926,1.265-2.174,1.896-3.74,1.896
		c-1.736,0-2.896-0.745-3.482-2.231c-0.59-1.485-0.883-2.812-0.883-3.993c-0.115-0.447-0.393-0.668-0.848-0.668
		c-0.549,0-1.131,0.668-1.711,1.968c-0.592,1.322-0.887,2.621-0.887,3.913c0,5.264,1.613,9.114,4.832,11.583
		c3.215,2.466,7.066,3.697,11.543,3.697c3.184,0,6.475-0.629,9.873-1.888c3.379-1.265,6.471-3.118,9.275-5.589
		c2.789-2.459,5.098-5.473,6.873-9.023c1.795-3.562,2.695-7.628,2.695-12.219c0-2.52-0.494-4.266-1.465-5.238
		c-0.982-0.985-2.092-1.476-3.324-1.476h-14.859c-4.641,0-8.242-1.635-10.791-4.915c-2.553-3.273-3.811-7.001-3.811-11.209
		c0-1.059,0.262-2.651,0.789-4.779c0.529-2.134,1.607-4.09,3.229-5.885c-3.578-3.353-5.365-7.89-5.365-13.599
		c0-3.922,0.818-7.822,2.471-11.713c1.652-3.902,3.891-7.416,6.719-10.578c2.826-3.163,6.129-5.715,9.9-7.646
		c3.779-1.932,7.865-2.897,12.229-2.897c2.963,0,5.932,0.926,8.898,2.774c1.063-1.061,2.879-2.055,5.467-2.984
		c2.559-0.923,5.051-1.38,7.469-1.38c1.734,0,3.199,0.35,4.404,1.042c1.197,0.704,1.801,1.979,1.801,3.828
		c0,1.788-0.631,3.609-1.883,5.455c-1.262,1.844-2.982,2.762-5.162,2.762c-0.961,0-1.814-0.316-2.609-0.953
		C467.504,111.928,467.109,110.826,467.109,109.258 M427.9,143.604c0,2.623,0.822,4.488,2.482,5.576
		c1.645,1.098,3.676,1.636,6.086,1.636c2.396,0,4.621-0.877,6.635-2.64c2.01-1.768,3.818-4.046,5.408-6.842
		c1.6-2.799,2.961-5.837,4.113-9.113c1.156-3.277,2.123-6.409,2.945-9.404c0.805-2.99,1.408-5.609,1.801-7.85
		c0.395-2.235,0.582-3.695,0.582-4.362c0-2.188-0.648-3.849-1.965-5.002c-1.324-1.142-3.066-1.722-5.248-1.722
		c-3.813,0-7.105,1.75-9.902,5.245c-2.816,3.503-5.18,7.526-7.15,12.052c-1.957,4.535-3.416,8.985-4.35,13.357
		C428.383,138.906,427.9,141.922,427.9,143.604"/>
	<path fill="#19A2A3" d="M471.322,157.206c0-2.073,0.34-4.862,1.039-8.355c0.701-3.505,1.758-7.284,3.193-11.342
		c1.426-4.052,3.205-8.184,5.326-12.376c2.133-4.205,4.658-7.98,7.564-11.348c2.914-3.348,6.225-6.121,9.945-8.311
		c3.721-2.182,7.887-3.27,12.475-3.27c3.689,0,6.941,0.83,9.73,2.476c2.799,1.646,4.436,4.827,4.883,9.529h-1.021
		c-0.936-3.414-2.471-5.87-4.566-7.388c-2.105-1.51-4.354-2.27-6.764-2.27c-2.643,0-5.275,1.244-7.932,3.738
		c-2.654,2.484-5.197,5.678-7.6,9.574c-2.412,3.891-4.605,8.157-6.598,12.803c-1.988,4.648-3.73,9.166-5.234,13.566
		c-1.516,4.385-2.697,8.358-3.529,11.919c-0.848,3.554-1.266,6.138-1.266,7.771c0,1.007,0.109,2.083,0.326,3.225
		c0.23,1.15,0.648,2.178,1.271,3.11c0.617,0.926,1.469,1.703,2.561,2.353c1.084,0.643,2.561,0.958,4.402,0.958
		c3.922,0,7.479-1.388,10.668-4.152c3.193-2.772,5.906-5.96,8.141-9.574c2.24-3.614,3.963-7.191,5.168-10.747
		c1.197-3.554,1.809-6.06,1.809-7.517c-1.117-2.068-2.031-4.115-2.736-6.131c-0.691-2.006-1.051-4.334-1.051-6.967
		c0-1.73,0.359-3.314,1.051-4.748c0.705-1.418,1.549-2.711,2.527-3.859c0.975-1.14,2.07-2.031,3.275-2.641
		c1.205-0.619,2.311-0.92,3.311-0.92c1.012,0,1.865,0.384,2.557,1.173c0.709,0.78,1.049,2.048,1.049,3.776
		c0,0.949-0.34,2.914-1.049,5.875c-0.691,2.969-1.709,6.48-3.021,10.533c-1.309,4.066-2.967,8.33-4.943,12.803
		c-1.994,4.493-4.375,8.611-7.141,12.395c-2.77,3.776-5.865,6.896-9.279,9.357c-3.42,2.467-7.193,3.7-11.344,3.7
		c-2.506,0-4.814-0.479-6.873-1.429c-2.082-0.953-3.891-2.292-5.426-4.039c-1.537-1.726-2.736-3.741-3.611-6.038
		C471.744,162.12,471.322,159.721,471.322,157.206"/>
	<path fill="#19A2A3" d="M205.689,189.495c-0.063-0.063-0.117-0.132-0.177-0.189c-2.978-3.273-5.474-8.911-3.524-13.265
		c1.543-3.452,10.051-7.67,9.611-1.13c-3.031-4.134-10.182,1.57-3.807,5.094c5.192,2.842,9.209-2.614,10.142-7.313
		c1.439-7.28-3.56-14.265-3.803-21.436c-0.284-8.049,1.893-16.443,7.391-22.307c-8.657,7.121-21.282,6.445-29.333-1.3
		c-7.685-7.382-11.926-20.368-1.496-27.455c3.812-2.581,12.238-2.01,10.144,4.415c-0.638,1.971-3.403,4.283-5.436,3.364
		c-2.496-1.136-1.282-3.804,0.771-3.013c-1.982,2.127,1.176,3.018,2.18,0.772c0.812-1.825-0.648-4.206-2.688-4.504
		c-6.651-0.97-3.608,9.373,0.818,10.624c7.18,2.027,12.802-6.723,13.253-12.629c0.684-9.148-6.435-16.336-6.073-25.531
		c0.299-7.457,3.424-15.805,9.423-20.434c-3.549,2.555-7.119,5.006-9.04,9.253c-4.761,10.531-0.167,21.439,2.648,31.713
		c1.794,6.546-0.295,10.696-4.949,15.106c4.034-4.364,4.141-12.536,2.301-17.799c-2.651-7.585-5.026-13.872-4.729-22.014
		c0.233-6.379,2.424-12.259,6.273-17.379c3.684-4.896,8.506-8.651,13.865-11.472c-1.86,0.392-3.285,0.683-3.625,0.763
		c-8.006,1.783-16.298,3.63-23.332,8.045c-3.087,1.941-4.725,4.727-7.104,7.428c-2.188,2.49-4.117,5.176-5.523,8.186
		c-1.469,3.166-1.926,6.669-3.255,9.879c-2.698,0.576-4.446-0.332-6.494-1.925c0.457,0.876,1.18,1.684,2.045,2.164
		c0.712,0.398,2.406,1.085,3.141,0.751c-1.673,1.244-4.644-0.138-6.068-1.448c1.471,1.407,2.591,2.325,4.796,2.548
		c-1.375,0.422-3.173,0.033-4.177-0.98c0.455,1.385,3.476,2.262,4.787,2.288c-0.221-0.009-1.805,1.216-2.096,1.418
		c-0.702,0.487-1.337,1.063-2.042,1.544c-1.375,0.926-2.737,1.629-4.223,2.346c-2.119,1.026-4.48,1.431-6.658,2.293
		c-1.563,0.625-3.658,1.545-3.431,3.526c0.216,1.881,1.665,3.26,2.694,4.719c0.971,1.379,1.68,2.054,0.736,3.678
		c-0.917,1.594-2.626,3.321-4.42,3.825c-1.84,0.523-2.642,1.994-2.191,3.947c0.482,2.076,2.4,3.583,4.34,4.373
		c-2.021-0.235-3.662,0.342-4.538,2.285c-0.411,0.918-0.469,1.851,0.104,2.748c0.453,0.699,1.088,1.049,1.457,1.811
		c0.425,0.915,0.732,2.055,0.507,3.064c-1.04,4.582-8.563,7.623-5.091,13.189c3.48,5.553,11.117,6.52,16.893,7.805
		c2.672,0.608,5.562,0.979,8.121,2.014c2.818,1.142,5.661,2.582,8.044,4.494c2.701,2.164,2.691,3.922,3.865,7.063
		c2.308,6.235,5.42,12.15,7.749,18.37c2.365,6.316,5.335,12.401,9.405,17.8c-9.186,5.521-21.001,6.291-31.091,2.308
		c-5.771-2.275-11.643-5.969-14.854-11.399c-6.729-11.362-4.421-29.099-18.329-35.884c-5.323-2.604-11.581-1.093-16.559,1.619
		c-11.6,6.3-16.468,20.165-2.981,27.521c4.204,2.299,9.477,3.189,13.539,0.474c4.102-2.735,7.246-10.222,2.743-14.167
		c-3.393-2.981-11.528,0.155-8.951,5.256c2.964,5.844,6.495-2.76,2.376-1.813c2.467-2.1,4.867,0.774,4.424,3.294
		c-0.454,2.57-3.215,4.271-5.641,4.271c-3.201,0.007-6.332-2.521-7.075-5.549c-2.773-11.395,10.423-19.171,20.164-13.406
		c8.874,5.243,6.991,20.115,0.94,26.708c-6.432,6.989-18.272,7.268-26.483,3.363c-16.123-7.662-21.916-30.176-21.455-46.352
		c0.606-21.123,13.237-38.516,31.666-48.155c16.775-8.768,37.635-11.192,50.567-26.243c-11.245,10.915-25.979,10.873-40.6,15.486
		c-20.353,6.422-38.263,23.022-43.254,44.301c-3.669,15.648,0.972,28.252,4.466,43.068c1.784,7.6,2.946,18.591-4.253,23.949
		c-7.033,5.233-11.104,0.745-15.341-4.402c5.294,6.433,16.1-4.181,17.301-9.477c2.151-9.443-6.204-18.844-7.671-27.84
		c-1.514-9.281-1.174-18.838,0.942-27.982c4.247-18.391,15.964-34.92,33.246-43.068c12.617-5.947,26.412-5.75,39.466-9.93
		c7.993-2.559,11.812-7.282,17.65-12.69c9.19-8.524,22.466-17.223,34.896-19.487l-15.647,2.055
		c-8.499,3.703-16.457,9.188-23.956,14.651c-3.13,2.276-14.875,11.907-17.594,5.079c-0.876-2.207-0.529-4.777,1.925-5.754
		c1.162-0.458,4.158-0.684,4.467,1.035c0.596,3.302-6.083,2.234-3.297,0.066c-2.216,0.654-2.372,3.846-0.238,4.775
		c2.131,0.93,5.028-0.449,6.123-2.299c0.95-1.607,0.964-3.771-0.027-5.328c-1.919-3.034-6.283-3.532-9.488-2.383
		c-1.874,0.68-3.647,1.572-4.994,3.068c-2.043,2.256-2.419,6.219-1.209,9.032c1.024,2.362,3.108,4.295,5.611,4.952
		c1.879,0.486,3.984,0.215,5.665-0.762c-10.585,6.188-21.887,3.894-33.562,5.009c-33.283,3.163-61.278,35.683-48.371,68.757
		c-2.208-6.869-1.485-17.236-0.177-23.527c4.24-20.428,21.711-37.162,42.436-40.23c-2.856,0.426-5.782,1.463-8.661,2.966
		c-13.188,6.896-25.604,23.523-29.088,35.329c-3.751,12.684-2.365,24.784,0.756,37.246c2.037,8.136,11.818,21.237,6.64,29.466
		c-2.489,3.932-14.019,10.48-15.681,2.498c1.433,6.869,6.154,15.764,15.038,13.151c5.832-1.7,9.438-8.323,9.984-14.437
		c2.343,11.261,20.767,16.501,30.435,15.116c9.926-1.408,16.915-7.11,19.023-16.828c0.267-1.213,0.529-2.426,0.717-3.621
		c-1.674,12.219,10.015,21.289,20.607,23.145c20.111,2.685,30.057-2.39,44.762-7.272c18.569-6.156,15.174-27.698,15.174-27.698
		c-1.691,2.169-3.524,4.255-5.478,6.215C218.623,174.941,214.078,183.624,205.689,189.495"/>
	<path fill="#19A2A3" d="M380.953,68.322c-0.887-1.146-2.047-1.721-3.443-1.721c-1.84,0-3.426,0.549-4.736,1.639
		c-1.311,1.092-2.408,2.436-3.275,4.032c-0.865,1.594-1.521,3.315-1.979,5.158c-0.449,1.849-0.674,3.505-0.674,4.952
		c0,1.629,0.492,2.987,1.473,4.084c0.98,1.086,2.275,1.626,3.906,1.626c1.346,0,2.611-0.596,3.811-1.804
		c1.219-1.201,2.275-2.643,3.201-4.32c0.918-1.688,1.658-3.405,2.217-5.166c0.572-1.764,0.842-3.284,0.842-4.572
		C382.295,70.772,381.852,69.474,380.953,68.322"/>
	<path fill="#19A2A3" d="M367.863,103.415c0.939,0,1.814,0.069,2.6,0.402c0.779,0.335,1.176,1.104,1.176,2.382
		c0,1.227-0.574,3.467-1.73,6.797c-1.145,3.329-2.598,7.205-4.361,11.626c-1.764,4.423-3.643,9.072-5.664,13.938
		c-2.018,4.871-3.906,9.487-5.664,13.855c-1.762,4.368-3.227,8.138-4.363,11.337c-1.15,3.188-1.729,5.377-1.729,6.551
		c0,1.448,0.674,2.169,2.014,2.169c3.244,0,7.215-3.827,11.924-11.501c0.332-0.55,0.725-0.917,1.176-1.081
		c0.447-0.167,0.783-0.258,1.004-0.258c0.223,0,0.49,0.091,0.797,0.258c0.318,0.164,0.473,0.354,0.473,0.587
		c0,0.218-0.387,1.179-1.143,2.857c-0.758,1.673-1.879,3.452-3.361,5.326c-1.48,1.877-3.314,3.559-5.494,5.039
		c-2.191,1.484-4.641,2.229-7.389,2.229c-1.402,0-2.729-0.339-3.988-1.012c-1.258-0.678-2.326-1.555-3.189-2.645
		c-0.873-1.09-1.561-2.299-2.053-3.612c-0.508-1.314-0.76-2.618-0.76-3.911c0-1.675,0.482-4.152,1.469-7.423
		c0.982-3.273,2.158-6.896,3.52-10.875c1.365-3.976,2.918-8.103,4.623-12.392c1.713-4.271,3.254-8.223,4.65-11.833
		c1.412-3.608,2.586-6.706,3.535-9.276c0.955-2.574,1.422-4.229,1.422-4.956c0-0.559-0.047-0.975-0.16-1.259
		c-0.115-0.276-0.447-0.508-1.004-0.671c-0.563-0.167-1.449-0.276-2.654-0.333c-1.195-0.056-7.516-0.379-8.982-0.706
		c-2.178-0.485-3.602-0.998-4.152-1.611c-1.412,4.7-2.268,6.924-4.453,12.935c-2.18,6.023-4.842,12.165-7.98,18.432
		c-3.141,6.268-6.773,12.438-10.912,18.521c-4.143,6.065-8.758,11.447-13.852,16.157c-5.1,4.699-10.711,8.479-16.842,11.329
		c-6.13,2.86-12.805,4.29-20.022,4.29c-3.474,0-6.8-0.497-9.99-1.474c-3.191-0.983-6.021-2.559-8.483-4.739
		c-2.464-2.186-4.449-5.057-5.96-8.606c-1.514-3.559-2.269-7.913-2.269-13.056c0-5.488,0.844-11.186,2.523-17.093
		c1.678-5.904,3.805-11.863,6.379-17.884c2.573-6.017,5.313-12.006,8.231-17.968c2.903-5.961,5.651-11.75,8.225-17.374
		c2.574-5.634,4.705-11.017,6.381-16.172c1.677-5.144,2.55-9.854,2.514-14.107c-0.024-4.411-3.457-11.019-4.448-12.761
		c-1.429-2.482-4.053-5.398-6.271-7.41c-2.539-2.307-4.798-3.169-7.094-3.82c-3.309-0.96-6.754-2.373-14.067-2.139
		c-6.418,0.191-13.773,2.664-19.368,4.646c-10.401,3.691-23.969,3.906-39.717,15.32l-2.208-3.969
		c9.295-6.499,19.811-11.861,29.099-15.781c9.296-3.912,20.091-5.118,29.602-5.118c6.662,0,12.696,1.189,18.127,2.755
		c5.429,1.568,9.927,4.313,13.819,7.278c3.893,2.964,9.083,9.108,11.271,13.53c2.172,4.419,3.265,9.486,3.265,15.192
		c0,4.597-0.854,9.733-2.556,15.415c-1.709,5.674-3.85,11.608-6.424,17.795c-2.574,6.186-5.386,12.438-8.435,18.726
		c-3.059,6.294-5.863,12.364-8.444,18.224c-2.57,5.845-4.729,11.333-6.459,16.457c-1.741,5.12-2.606,9.438-2.606,12.978
		c0,6.537,1.929,11.151,5.797,13.844c3.854,2.691,8.813,4.042,14.857,4.042c6.102,0,11.895-1.729,17.382-5.167
		c5.485-3.444,10.577-7.856,15.28-13.225c4.699-5.387,8.924-11.374,12.639-17.976c3.727-6.605,6.914-13.111,9.572-19.514
		c2.656-6.411,4.703-12.32,6.129-17.72c1.422-5.405,0.787-5.138,0.787-8.222c-1.957-1.623-3.736-3.554-5.328-5.798
		c-1.602-2.241-2.971-4.614-4.115-7.133c-1.143-2.517-2.012-5.095-2.605-7.726c-0.586-2.625-0.879-5.144-0.879-7.551
		c0-3.645,0.779-6.713,2.354-9.203c1.566-2.486,4.002-3.729,7.311-3.729c2.736,0,4.867,0.978,6.42,2.93
		c1.533,1.963,2.691,4.287,3.439,6.979c0.758,2.682,1.215,5.47,1.389,8.352c0.17,2.887,0.252,5.25,0.252,7.098
		c0,2.41-0.029,5.127-0.078,8.146c-0.061,3.027-0.309,5.634-0.752,7.819c0,0,1.867,1.31,4.424,2.022
		c2.553,0.711,4.947,0.918,7.434,1.129C355.178,103.532,367.863,103.415,367.863,103.415"/>
	<path fill="#19A2A3" d="M370.377,163.579c0-1.847,0.408-4.192,1.223-7.05c0.803-2.855,1.85-5.979,3.109-9.365
		c1.26-3.385,2.602-6.887,4.025-10.495s2.775-7.081,4.029-10.407c1.262-3.332,2.301-6.426,3.113-9.271
		c0.807-2.873,1.215-5.218,1.215-7.061c0-2.4-0.727-3.806-2.184-4.201c-1.457-0.389-3.076-0.586-4.875-0.586
		c-0.945,0-1.426-0.312-1.426-0.928c0-0.672,0.307-1.002,0.924-1.002h15.287c1.955,0,3.412,0.605,4.367,1.805
		c0.941,1.201,1.422,2.563,1.422,4.066c0,1.016-0.195,2.359-0.592,4.039c-0.389,1.678-0.895,3.514-1.508,5.498
		c-0.619,1.991-1.293,4.042-2.057,6.17c-0.754,2.123-1.414,4.117-1.975,5.957c1.348-1.84,2.879-4.32,4.619-7.423
		c1.738-3.112,3.627-6.147,5.672-9.117c2.037-2.965,4.258-5.539,6.678-7.728c2.396-2.18,5.004-3.268,7.809-3.268
		c1.564,0,2.752,0.77,3.57,2.305c0.805,1.54,1.213,3.348,1.213,5.417c0,1.514-0.191,3.013-0.582,4.489
		c-0.4,1.486-0.943,2.857-1.648,4.115c-0.703,1.254-1.586,2.304-2.68,3.11c-1.1,0.813-2.313,1.216-3.654,1.216
		c-1.742,0-2.986-0.599-3.738-1.805c-0.758-1.205-1.135-2.505-1.135-3.901c0-1.96,0.49-3.878,1.469-5.752
		c0.979-1.872,1.928-3.684,2.814-5.423c-0.887,0-2.379,1.263-4.453,3.783c-2.07,2.52-4.363,5.732-6.885,9.652
		c-2.516,3.928-5.119,8.212-7.807,12.892c-2.682,4.681-5.15,9.253-7.391,13.725c-2.238,4.489-4.074,8.556-5.498,12.224
		c-1.424,3.658-2.143,6.363-2.143,8.103c0,2.283,0.6,3.751,1.809,4.368c1.195,0.61,2.256,0.921,3.148,0.921
		c2.293,0,4.371-0.528,6.211-1.596c1.846-1.061,3.396-2.223,4.666-3.486c1.258-1.263,2.318-2.432,3.193-3.524
		c0.861-1.093,1.457-1.643,1.801-1.643c0.334,0,0.496,0.23,0.496,0.669c-1.619,3.869-4.232,6.836-7.838,8.9
		c-3.623,2.086-7.725,3.104-12.316,3.104c-3.076,0-5.76-1.135-8.047-3.436C371.537,169.355,370.377,166.662,370.377,163.579"/>
	<path fill="#19A2A3" d="M467.109,109.258c0-1.174,0.313-2.418,0.938-3.74c0.602-1.311,1.502-2.414,2.68-3.313
		c-4.145,0.225-7.359,1.541-9.656,3.945c1.842,1.514,3.371,3.229,4.566,5.165c1.211,1.923,1.814,4.044,1.814,6.335
		c0,4.146-0.66,8.331-1.979,12.557c-1.316,4.223-3.279,8.037-5.873,11.418c-2.6,3.394-5.762,6.17-9.488,8.354
		c-3.719,2.178-7.994,3.277-12.816,3.277c-5.029,0-9.195-1.317-12.508-3.943c-1.73,3.068-2.594,5.706-2.594,7.894
		c0,2.74,1.035,4.84,3.102,6.294c2.074,1.452,4.531,2.179,7.389,2.179c3.08,0,6.055-0.323,8.939-0.963
		c2.893-0.634,5.813-0.963,8.779-0.963c4.359,0,8.006,1.032,10.912,3.104c2.91,2.074,4.375,5.515,4.375,10.325
		c0,5.489-1.268,10.502-3.795,15.037c-2.506,4.53-5.682,8.404-9.514,11.622c-3.834,3.225-8.08,5.688-12.729,7.394
		c-4.65,1.707-9.096,2.563-13.354,2.563c-5.141,0-9.523-1.376-13.139-4.12c-3.602-2.747-5.414-7.159-5.414-13.26
		c0-4.032,1.012-6.99,3.027-8.871c2.012-1.87,3.967-2.803,5.881-2.803c1.955,0,3.344,0.568,4.15,1.717
		c0.814,1.151,1.225,2.399,1.225,3.732c0,1.622-0.467,3.072-1.389,4.329c-0.926,1.265-2.174,1.896-3.74,1.896
		c-1.736,0-2.896-0.745-3.482-2.231c-0.59-1.485-0.883-2.812-0.883-3.993c-0.115-0.447-0.393-0.668-0.848-0.668
		c-0.549,0-1.131,0.668-1.711,1.968c-0.592,1.322-0.887,2.621-0.887,3.913c0,5.264,1.613,9.114,4.832,11.583
		c3.215,2.466,7.066,3.697,11.543,3.697c3.184,0,6.475-0.629,9.873-1.888c3.379-1.265,6.471-3.118,9.275-5.589
		c2.789-2.459,5.098-5.473,6.873-9.023c1.795-3.562,2.695-7.628,2.695-12.219c0-2.52-0.494-4.266-1.465-5.238
		c-0.982-0.985-2.092-1.476-3.324-1.476h-14.859c-4.641,0-8.242-1.635-10.791-4.915c-2.553-3.273-3.811-7.001-3.811-11.209
		c0-1.059,0.262-2.651,0.789-4.779c0.529-2.134,1.607-4.09,3.229-5.885c-3.578-3.353-5.365-7.89-5.365-13.599
		c0-3.922,0.818-7.822,2.471-11.713c1.652-3.902,3.891-7.416,6.719-10.578c2.826-3.163,6.129-5.715,9.9-7.646
		c3.779-1.932,7.865-2.897,12.229-2.897c2.963,0,5.932,0.926,8.898,2.774c1.063-1.061,2.879-2.055,5.467-2.984
		c2.559-0.923,5.051-1.38,7.469-1.38c1.734,0,3.199,0.35,4.404,1.042c1.197,0.704,1.801,1.979,1.801,3.828
		c0,1.788-0.631,3.609-1.883,5.455c-1.262,1.844-2.982,2.762-5.162,2.762c-0.961,0-1.814-0.316-2.609-0.953
		C467.504,111.928,467.109,110.826,467.109,109.258 M427.9,143.604c0,2.623,0.822,4.488,2.482,5.576
		c1.645,1.098,3.676,1.636,6.086,1.636c2.396,0,4.621-0.877,6.635-2.64c2.01-1.768,3.818-4.046,5.408-6.842
		c1.6-2.799,2.961-5.837,4.113-9.113c1.156-3.277,2.123-6.409,2.945-9.404c0.805-2.99,1.408-5.609,1.801-7.85
		c0.395-2.235,0.582-3.695,0.582-4.362c0-2.188-0.648-3.849-1.965-5.002c-1.324-1.142-3.066-1.722-5.248-1.722
		c-3.813,0-7.105,1.75-9.902,5.245c-2.816,3.503-5.18,7.526-7.15,12.052c-1.957,4.535-3.416,8.985-4.35,13.357
		C428.383,138.906,427.9,141.922,427.9,143.604"/>
	<path fill="#19A2A3" d="M471.322,157.206c0-2.073,0.34-4.862,1.039-8.355c0.701-3.505,1.758-7.284,3.193-11.342
		c1.426-4.052,3.205-8.184,5.326-12.376c2.133-4.205,4.658-7.98,7.564-11.348c2.914-3.348,6.225-6.121,9.945-8.311
		c3.721-2.182,7.887-3.27,12.475-3.27c3.689,0,6.941,0.83,9.73,2.476c2.799,1.646,4.436,4.827,4.883,9.529h-1.021
		c-0.936-3.414-2.471-5.87-4.566-7.388c-2.105-1.51-4.354-2.27-6.764-2.27c-2.643,0-5.275,1.244-7.932,3.738
		c-2.654,2.484-5.197,5.678-7.6,9.574c-2.412,3.891-4.605,8.157-6.598,12.803c-1.988,4.648-3.73,9.166-5.234,13.566
		c-1.516,4.385-2.697,8.358-3.529,11.919c-0.848,3.554-1.266,6.138-1.266,7.771c0,1.007,0.109,2.083,0.326,3.225
		c0.23,1.15,0.648,2.178,1.271,3.11c0.617,0.926,1.469,1.703,2.561,2.353c1.084,0.643,2.561,0.958,4.402,0.958
		c3.922,0,7.479-1.388,10.668-4.152c3.193-2.772,5.906-5.96,8.141-9.574c2.24-3.614,3.963-7.191,5.168-10.747
		c1.197-3.554,1.809-6.06,1.809-7.517c-1.117-2.068-2.031-4.115-2.736-6.131c-0.691-2.006-1.051-4.334-1.051-6.967
		c0-1.73,0.359-3.314,1.051-4.748c0.705-1.418,1.549-2.711,2.527-3.859c0.975-1.14,2.07-2.031,3.275-2.641
		c1.205-0.619,2.311-0.92,3.311-0.92c1.012,0,1.865,0.384,2.557,1.173c0.709,0.78,1.049,2.048,1.049,3.776
		c0,0.949-0.34,2.914-1.049,5.875c-0.691,2.969-1.709,6.48-3.021,10.533c-1.309,4.066-2.967,8.33-4.943,12.803
		c-1.994,4.493-4.375,8.611-7.141,12.395c-2.77,3.776-5.865,6.896-9.279,9.357c-3.42,2.467-7.193,3.7-11.344,3.7
		c-2.506,0-4.814-0.479-6.873-1.429c-2.082-0.953-3.891-2.292-5.426-4.039c-1.537-1.726-2.736-3.741-3.611-6.038
		C471.744,162.12,471.322,159.721,471.322,157.206"/>
	<path fill="#19A2A3" d="M205.689,189.495c-0.063-0.063-0.117-0.132-0.177-0.189c-2.978-3.273-5.474-8.911-3.524-13.265
		c1.543-3.452,10.051-7.67,9.611-1.13c-3.031-4.134-10.182,1.57-3.807,5.094c5.192,2.842,9.209-2.614,10.142-7.313
		c1.439-7.28-3.56-14.265-3.803-21.436c-0.284-8.049,1.893-16.443,7.391-22.307c-8.657,7.121-21.282,6.445-29.333-1.3
		c-7.685-7.382-11.926-20.368-1.496-27.455c3.812-2.581,12.238-2.01,10.144,4.415c-0.638,1.971-3.403,4.283-5.436,3.364
		c-2.496-1.136-1.282-3.804,0.771-3.013c-1.982,2.127,1.176,3.018,2.18,0.772c0.812-1.825-0.648-4.206-2.688-4.504
		c-6.651-0.97-3.608,9.373,0.818,10.624c7.18,2.027,12.802-6.723,13.253-12.629c0.684-9.148-6.435-16.336-6.073-25.531
		c0.299-7.457,3.424-15.805,9.423-20.434c-3.549,2.555-7.119,5.006-9.04,9.253c-4.761,10.531-0.167,21.439,2.648,31.713
		c1.794,6.546-0.295,10.696-4.949,15.106c4.034-4.364,4.141-12.536,2.301-17.799c-2.651-7.585-5.026-13.872-4.729-22.014
		c0.233-6.379,2.424-12.259,6.273-17.379c3.684-4.896,8.506-8.651,13.865-11.472c-1.86,0.392-3.285,0.683-3.625,0.763
		c-8.006,1.783-16.298,3.63-23.332,8.045c-3.087,1.941-4.725,4.727-7.104,7.428c-2.188,2.49-4.117,5.176-5.523,8.186
		c-1.469,3.166-1.926,6.669-3.255,9.879c-2.698,0.576-4.446-0.332-6.494-1.925c0.457,0.876,1.18,1.684,2.045,2.164
		c0.712,0.398,2.406,1.085,3.141,0.751c-1.673,1.244-4.644-0.138-6.068-1.448c1.471,1.407,2.591,2.325,4.796,2.548
		c-1.375,0.422-3.173,0.033-4.177-0.98c0.455,1.385,3.476,2.262,4.787,2.288c-0.221-0.009-1.805,1.216-2.096,1.418
		c-0.702,0.487-1.337,1.063-2.042,1.544c-1.375,0.926-2.737,1.629-4.223,2.346c-2.119,1.026-4.48,1.431-6.658,2.293
		c-1.563,0.625-3.658,1.545-3.431,3.526c0.216,1.881,1.665,3.26,2.694,4.719c0.971,1.379,1.68,2.054,0.736,3.678
		c-0.917,1.594-2.626,3.321-4.42,3.825c-1.84,0.523-2.642,1.994-2.191,3.947c0.482,2.076,2.4,3.583,4.34,4.373
		c-2.021-0.235-3.662,0.342-4.538,2.285c-0.411,0.918-0.469,1.851,0.104,2.748c0.453,0.699,1.088,1.049,1.457,1.811
		c0.425,0.915,0.732,2.055,0.507,3.064c-1.04,4.582-8.563,7.623-5.091,13.189c3.48,5.553,11.117,6.52,16.893,7.805
		c2.672,0.608,5.562,0.979,8.121,2.014c2.818,1.142,5.661,2.582,8.044,4.494c2.701,2.164,2.691,3.922,3.865,7.063
		c2.308,6.235,5.42,12.15,7.749,18.37c2.365,6.316,5.335,12.401,9.405,17.8c-9.186,5.521-21.001,6.291-31.091,2.308
		c-5.771-2.275-11.643-5.969-14.854-11.399c-6.729-11.362-4.421-29.099-18.329-35.884c-5.323-2.604-11.581-1.093-16.559,1.619
		c-11.6,6.3-16.468,20.165-2.981,27.521c4.204,2.299,9.477,3.189,13.539,0.474c4.102-2.735,7.246-10.222,2.743-14.167
		c-3.393-2.981-11.528,0.155-8.951,5.256c2.964,5.844,6.495-2.76,2.376-1.813c2.467-2.1,4.867,0.774,4.424,3.294
		c-0.454,2.57-3.215,4.271-5.641,4.271c-3.201,0.007-6.332-2.521-7.075-5.549c-2.773-11.395,10.423-19.171,20.164-13.406
		c8.874,5.243,6.991,20.115,0.94,26.708c-6.432,6.989-18.272,7.268-26.483,3.363c-16.123-7.662-21.916-30.176-21.455-46.352
		c0.606-21.123,13.237-38.516,31.666-48.155c16.775-8.768,37.635-11.192,50.567-26.243c-11.245,10.915-25.979,10.873-40.6,15.486
		c-20.353,6.422-38.263,23.022-43.254,44.301c-3.669,15.648,0.972,28.252,4.466,43.068c1.784,7.6,2.946,18.591-4.253,23.949
		c-7.033,5.233-11.104,0.745-15.341-4.402c5.294,6.433,16.1-4.181,17.301-9.477c2.151-9.443-6.204-18.844-7.671-27.84
		c-1.514-9.281-1.174-18.838,0.942-27.982c4.247-18.391,15.964-34.92,33.246-43.068c12.617-5.947,26.412-5.75,39.466-9.93
		c7.993-2.559,11.812-7.282,17.65-12.69c9.19-8.524,22.466-17.223,34.896-19.487l-15.647,2.055
		c-8.499,3.703-16.457,9.188-23.956,14.651c-3.13,2.276-14.875,11.907-17.594,5.079c-0.876-2.207-0.529-4.777,1.925-5.754
		c1.162-0.458,4.158-0.684,4.467,1.035c0.596,3.302-6.083,2.234-3.297,0.066c-2.216,0.654-2.372,3.846-0.238,4.775
		c2.131,0.93,5.028-0.449,6.123-2.299c0.95-1.607,0.964-3.771-0.027-5.328c-1.919-3.034-6.283-3.532-9.488-2.383
		c-1.874,0.68-3.647,1.572-4.994,3.068c-2.043,2.256-2.419,6.219-1.209,9.032c1.024,2.362,3.108,4.295,5.611,4.952
		c1.879,0.486,3.984,0.215,5.665-0.762c-10.585,6.188-21.887,3.894-33.562,5.009c-33.283,3.163-61.278,35.683-48.371,68.757
		c-2.208-6.869-1.485-17.236-0.177-23.527c4.24-20.428,21.711-37.162,42.436-40.23c-2.856,0.426-5.782,1.463-8.661,2.966
		c-13.188,6.896-25.604,23.523-29.088,35.329c-3.751,12.684-2.365,24.784,0.756,37.246c2.037,8.136,11.818,21.237,6.64,29.466
		c-2.489,3.932-14.019,10.48-15.681,2.498c1.433,6.869,6.154,15.764,15.038,13.151c5.832-1.7,9.438-8.323,9.984-14.437
		c2.343,11.261,20.767,16.501,30.435,15.116c9.926-1.408,16.915-7.11,19.023-16.828c0.267-1.213,0.529-2.426,0.717-3.621
		c-1.674,12.219,10.015,21.289,20.607,23.145c20.111,2.685,30.057-2.39,44.762-7.272c18.569-6.156,15.174-27.698,15.174-27.698
		c-1.691,2.169-3.524,4.255-5.478,6.215C218.623,174.941,214.078,183.624,205.689,189.495"/>
	<path fill="#19A2A3" d="M79.297,208.188c0,0.417-0.188,0.77-0.563,1.06c-0.373,0.288-0.845,0.432-1.412,0.432
		c-0.534,0-0.995-0.144-1.386-0.432c-0.39-0.29-0.585-0.643-0.585-1.06c0-0.399,0.195-0.745,0.585-1.032
		c0.391-0.288,0.852-0.43,1.386-0.43c0.567,0,1.039,0.142,1.412,0.43C79.11,207.443,79.297,207.789,79.297,208.188 M79.297,211.144
		c0,0.399-0.188,0.74-0.563,1.035c-0.373,0.287-0.845,0.431-1.412,0.431c-0.534,0-0.995-0.144-1.386-0.431
		c-0.39-0.295-0.585-0.636-0.585-1.035c0-0.396,0.195-0.742,0.585-1.03c0.391-0.287,0.852-0.434,1.386-0.434
		c0.567,0,1.039,0.146,1.412,0.434C79.11,210.401,79.297,210.747,79.297,211.144 M79.297,214.073c0,0.413-0.188,0.772-0.563,1.061
		c-0.373,0.287-0.845,0.432-1.412,0.432c-0.534,0-0.995-0.145-1.386-0.432c-0.39-0.288-0.585-0.647-0.585-1.061
		c0-0.398,0.195-0.742,0.585-1.032c0.391-0.287,0.852-0.432,1.386-0.432c0.567,0,1.039,0.145,1.412,0.432
		C79.11,213.331,79.297,213.675,79.297,214.073 M79.297,217.029c0,0.398-0.188,0.744-0.563,1.034
		c-0.373,0.285-0.845,0.432-1.412,0.432c-0.534,0-0.995-0.146-1.386-0.432c-0.39-0.29-0.585-0.636-0.585-1.034
		c0-0.397,0.195-0.745,0.585-1.032c0.391-0.286,0.852-0.432,1.386-0.432c0.567,0,1.039,0.146,1.412,0.432
		C79.11,216.284,79.297,216.632,79.297,217.029 M79.297,219.959c0,0.415-0.188,0.772-0.563,1.06c-0.373,0.29-0.845,0.43-1.412,0.43
		c-0.534,0-0.995-0.14-1.386-0.43c-0.39-0.287-0.585-0.645-0.585-1.06c0-0.396,0.195-0.742,0.585-1.032
		c0.391-0.288,0.852-0.432,1.386-0.432c0.567,0,1.039,0.144,1.412,0.432C79.11,219.217,79.297,219.563,79.297,219.959
		 M79.297,222.917c0,0.398-0.188,0.739-0.563,1.029c-0.373,0.288-0.845,0.432-1.412,0.432c-0.534,0-0.995-0.144-1.386-0.432
		c-0.39-0.29-0.585-0.631-0.585-1.029c0-0.401,0.195-0.745,0.585-1.033c0.391-0.289,0.852-0.436,1.386-0.436
		c0.567,0,1.039,0.146,1.412,0.436C79.11,222.172,79.297,222.516,79.297,222.917 M79.297,225.844c0,0.416-0.188,0.772-0.563,1.061
		c-0.373,0.288-0.845,0.429-1.412,0.429c-0.534,0-0.995-0.141-1.386-0.429c-0.39-0.288-0.585-0.645-0.585-1.061
		c0-0.398,0.195-0.742,0.585-1.032c0.391-0.287,0.852-0.434,1.386-0.434c0.567,0,1.039,0.146,1.412,0.434
		C79.11,225.102,79.297,225.445,79.297,225.844 M83.282,208.188c0,0.417-0.195,0.77-0.581,1.06c-0.39,0.288-0.855,0.432-1.39,0.432
		c-0.563,0-1.039-0.144-1.429-0.432c-0.391-0.29-0.585-0.643-0.585-1.06c0-0.399,0.194-0.745,0.585-1.032
		c0.39-0.288,0.865-0.43,1.429-0.43c0.534,0,1,0.142,1.39,0.43C83.086,207.443,83.282,207.789,83.282,208.188 M83.282,217.029
		c0,0.398-0.195,0.744-0.581,1.034c-0.39,0.285-0.855,0.432-1.39,0.432c-0.563,0-1.039-0.146-1.429-0.432
		c-0.391-0.29-0.585-0.636-0.585-1.034c0-0.397,0.194-0.745,0.585-1.032c0.39-0.286,0.865-0.432,1.429-0.432
		c0.534,0,1,0.146,1.39,0.432C83.086,216.284,83.282,216.632,83.282,217.029 M83.282,225.844c0,0.416-0.195,0.772-0.581,1.061
		c-0.39,0.288-0.855,0.429-1.39,0.429c-0.563,0-1.039-0.141-1.429-0.429c-0.391-0.288-0.585-0.645-0.585-1.061
		c0-0.398,0.194-0.742,0.585-1.032c0.39-0.287,0.865-0.434,1.429-0.434c0.534,0,1,0.146,1.39,0.434
		C83.086,225.102,83.282,225.445,83.282,225.844 M87.228,208.395c0,0.423-0.195,0.771-0.582,1.065
		c-0.39,0.287-0.865,0.431-1.432,0.431c-0.535,0-0.997-0.144-1.387-0.431c-0.39-0.295-0.584-0.643-0.584-1.065
		c0-0.398,0.194-0.744,0.584-1.029c0.39-0.293,0.852-0.432,1.387-0.432c0.566,0,1.042,0.139,1.432,0.432
		C87.033,207.65,87.228,207.996,87.228,208.395 M87.228,225.844c0,0.416-0.185,0.772-0.561,1.061
		c-0.379,0.288-0.847,0.429-1.41,0.429c-0.536,0-0.997-0.141-1.39-0.429c-0.392-0.288-0.586-0.645-0.586-1.061
		c0-0.398,0.194-0.742,0.586-1.032c0.393-0.287,0.854-0.434,1.39-0.434c0.563,0,1.031,0.146,1.41,0.434
		C87.043,225.102,87.228,225.445,87.228,225.844 M87.352,216.94c0,0.413-0.195,0.772-0.585,1.061
		c-0.387,0.29-0.854,0.434-1.39,0.434c-0.536,0-1-0.144-1.39-0.434c-0.387-0.288-0.582-0.647-0.582-1.061
		c0-0.398,0.195-0.739,0.582-1.029c0.39-0.288,0.854-0.435,1.39-0.435c0.535,0,1.003,0.146,1.39,0.435
		C87.157,216.201,87.352,216.542,87.352,216.94 M89.968,214.967c0,0.361-0.178,0.673-0.525,0.928
		c-0.347,0.258-0.762,0.39-1.243,0.39c-0.515,0-0.943-0.132-1.291-0.39c-0.352-0.255-0.524-0.566-0.524-0.928
		c0-0.374,0.173-0.693,0.524-0.956c0.348-0.257,0.776-0.388,1.291-0.388c0.481,0,0.896,0.131,1.243,0.388
		C89.791,214.273,89.968,214.593,89.968,214.967 M90.734,209.858c0,0.418-0.195,0.768-0.585,1.046
		c-0.391,0.279-0.865,0.423-1.429,0.423c-0.539,0-1.003-0.144-1.39-0.423c-0.39-0.278-0.586-0.628-0.586-1.046
		c0-0.396,0.196-0.742,0.586-1.027c0.387-0.29,0.851-0.437,1.39-0.437c0.563,0,1.038,0.146,1.429,0.437
		C90.539,209.116,90.734,209.462,90.734,209.858 M91.216,225.605c0,0.396-0.195,0.742-0.586,1.027
		c-0.39,0.292-0.85,0.434-1.39,0.434c-0.56,0-1.038-0.142-1.429-0.434c-0.39-0.285-0.584-0.631-0.584-1.027
		c0-0.401,0.194-0.742,0.584-1.03c0.391-0.29,0.869-0.437,1.429-0.437c0.54,0,1,0.146,1.39,0.437
		C91.021,224.863,91.216,225.204,91.216,225.605 M90.613,217.507c0,0.32-0.163,0.592-0.485,0.823
		c-0.322,0.229-0.698,0.346-1.124,0.346c-0.461,0-0.84-0.116-1.148-0.346c-0.309-0.231-0.464-0.503-0.464-0.823
		c0-0.334,0.155-0.624,0.464-0.849c0.309-0.232,0.688-0.344,1.148-0.344c0.426,0,0.802,0.111,1.124,0.344
		C90.45,216.883,90.613,217.173,90.613,217.507 M91.66,212.577c0,0.364-0.178,0.668-0.525,0.926c-0.347,0.262-0.766,0.39-1.248,0.39
		c-0.511,0-0.938-0.128-1.286-0.39c-0.352-0.258-0.524-0.562-0.524-0.926c0-0.359,0.173-0.668,0.524-0.926
		c0.348-0.257,0.775-0.387,1.286-0.387c0.482,0,0.901,0.13,1.248,0.387C91.482,211.909,91.66,212.218,91.66,212.577 M93.471,218.644
		c0,0.341-0.156,0.626-0.465,0.852c-0.309,0.231-0.688,0.343-1.146,0.343c-0.432,0-0.808-0.111-1.127-0.343
		c-0.322-0.226-0.486-0.511-0.486-0.852c0-0.315,0.164-0.592,0.486-0.826c0.319-0.225,0.695-0.339,1.127-0.339
		c0.457,0,0.837,0.114,1.146,0.339C93.315,218.052,93.471,218.328,93.471,218.644 M94.435,223.784c0,0.396-0.191,0.74-0.581,1.027
		c-0.391,0.29-0.865,0.437-1.433,0.437c-0.536,0-0.996-0.146-1.386-0.437c-0.39-0.287-0.586-0.631-0.586-1.027
		c0-0.403,0.196-0.742,0.586-1.03c0.39-0.287,0.85-0.436,1.386-0.436c0.567,0,1.042,0.148,1.433,0.436
		C94.244,223.042,94.435,223.381,94.435,223.784 M95.08,221.033c0,0.361-0.174,0.67-0.521,0.926
		c-0.352,0.262-0.78,0.387-1.291,0.387c-0.481,0-0.899-0.125-1.248-0.387c-0.343-0.256-0.524-0.564-0.524-0.926
		c0-0.379,0.182-0.694,0.524-0.961c0.349-0.253,0.767-0.383,1.248-0.383c0.511,0,0.939,0.13,1.291,0.383
		C94.906,220.339,95.08,220.654,95.08,221.033"/>
	<path fill="#19A2A3" d="M103.173,208.188c0,0.417-0.194,0.77-0.581,1.06c-0.39,0.288-0.854,0.432-1.39,0.432
		c-0.563,0-1.042-0.144-1.432-0.432c-0.387-0.29-0.582-0.643-0.582-1.06c0-0.401,0.195-0.742,0.582-1.03
		c0.39-0.295,0.868-0.436,1.432-0.436c0.535,0,1,0.141,1.39,0.436C102.979,207.446,103.173,207.787,103.173,208.188
		 M103.173,211.146c0,0.396-0.194,0.737-0.581,1.029c-0.39,0.285-0.854,0.432-1.39,0.432c-0.563,0-1.042-0.146-1.432-0.432
		c-0.387-0.292-0.582-0.633-0.582-1.029c0-0.399,0.195-0.743,0.582-1.033c0.39-0.287,0.868-0.434,1.432-0.434
		c0.535,0,1,0.146,1.39,0.434C102.979,210.403,103.173,210.747,103.173,211.146 M103.173,214.073c0,0.416-0.194,0.775-0.581,1.061
		c-0.39,0.287-0.854,0.432-1.39,0.432c-0.563,0-1.042-0.145-1.432-0.432c-0.387-0.285-0.582-0.645-0.582-1.061
		c0-0.403,0.195-0.742,0.582-1.029c0.39-0.288,0.868-0.437,1.432-0.437c0.535,0,1,0.148,1.39,0.437
		C102.979,213.331,103.173,213.67,103.173,214.073 M103.173,217.029c0,0.398-0.194,0.739-0.581,1.029
		c-0.39,0.293-0.854,0.437-1.39,0.437c-0.563,0-1.042-0.144-1.432-0.437c-0.387-0.29-0.582-0.631-0.582-1.029
		c0-0.397,0.195-0.742,0.582-1.03c0.39-0.288,0.868-0.434,1.432-0.434c0.535,0,1,0.146,1.39,0.434
		C102.979,216.287,103.173,216.632,103.173,217.029 M103.173,219.959c0,0.417-0.194,0.772-0.581,1.06
		c-0.39,0.29-0.854,0.432-1.39,0.432c-0.563,0-1.042-0.142-1.432-0.432c-0.387-0.287-0.582-0.643-0.582-1.06
		c0-0.396,0.195-0.742,0.582-1.032c0.39-0.285,0.868-0.432,1.432-0.432c0.535,0,1,0.146,1.39,0.432
		C102.979,219.217,103.173,219.563,103.173,219.959 M103.173,222.914c0,0.401-0.194,0.74-0.581,1.035
		c-0.39,0.287-0.854,0.431-1.39,0.431c-0.563,0-1.042-0.144-1.432-0.431c-0.387-0.295-0.582-0.634-0.582-1.035
		c0-0.398,0.195-0.742,0.582-1.027c0.39-0.29,0.868-0.437,1.432-0.437c0.535,0,1,0.146,1.39,0.437
		C102.979,222.172,103.173,222.516,103.173,222.914 M103.173,225.844c0,0.416-0.194,0.772-0.581,1.061
		c-0.39,0.29-0.854,0.432-1.39,0.432c-0.563,0-1.042-0.142-1.432-0.432c-0.387-0.288-0.582-0.645-0.582-1.061
		c0-0.396,0.195-0.742,0.582-1.032c0.39-0.287,0.868-0.432,1.432-0.432c0.535,0,1,0.145,1.39,0.432
		C102.979,225.102,103.173,225.447,103.173,225.844 M107.163,208.188c0,0.417-0.195,0.77-0.586,1.06
		c-0.39,0.288-0.864,0.432-1.428,0.432c-0.539,0-1-0.144-1.391-0.432c-0.386-0.29-0.585-0.643-0.585-1.06
		c0-0.401,0.199-0.742,0.585-1.03c0.391-0.295,0.852-0.436,1.391-0.436c0.563,0,1.038,0.141,1.428,0.436
		C106.967,207.446,107.163,207.787,107.163,208.188 M107.163,217.029c0,0.398-0.195,0.739-0.586,1.029
		c-0.39,0.293-0.864,0.437-1.428,0.437c-0.539,0-1-0.144-1.391-0.437c-0.386-0.29-0.585-0.631-0.585-1.029
		c0-0.397,0.199-0.742,0.585-1.03c0.391-0.288,0.852-0.434,1.391-0.434c0.563,0,1.038,0.146,1.428,0.434
		C106.967,216.287,107.163,216.632,107.163,217.029 M107.163,225.844c0,0.416-0.195,0.772-0.586,1.061
		c-0.39,0.29-0.864,0.432-1.428,0.432c-0.539,0-1-0.142-1.391-0.432c-0.386-0.288-0.585-0.645-0.585-1.061
		c0-0.396,0.199-0.742,0.585-1.032c0.391-0.287,0.852-0.432,1.391-0.432c0.563,0,1.038,0.145,1.428,0.432
		C106.967,225.102,107.163,225.447,107.163,225.844 M111.109,208.188c0,0.417-0.196,0.77-0.586,1.06
		c-0.39,0.288-0.851,0.432-1.39,0.432c-0.535,0-1-0.144-1.39-0.432c-0.39-0.29-0.581-0.643-0.581-1.06
		c0-0.401,0.191-0.742,0.581-1.03c0.39-0.295,0.854-0.436,1.39-0.436c0.539,0,1,0.141,1.39,0.436
		C110.913,207.446,111.109,207.787,111.109,208.188 M111.109,217.029c0,0.398-0.196,0.739-0.586,1.029
		c-0.39,0.293-0.851,0.437-1.39,0.437c-0.535,0-1-0.144-1.39-0.437c-0.39-0.29-0.581-0.631-0.581-1.029
		c0-0.397,0.191-0.742,0.581-1.03s0.854-0.434,1.39-0.434c0.539,0,1,0.146,1.39,0.434S111.109,216.632,111.109,217.029
		 M111.109,225.844c0,0.416-0.196,0.772-0.586,1.061c-0.39,0.29-0.851,0.432-1.39,0.432c-0.535,0-1-0.142-1.39-0.432
		c-0.39-0.288-0.581-0.645-0.581-1.061c0-0.396,0.191-0.742,0.581-1.032c0.39-0.287,0.854-0.432,1.39-0.432
		c0.539,0,1,0.145,1.39,0.432C110.913,225.102,111.109,225.447,111.109,225.844 M115.093,208.188c0,0.417-0.195,0.77-0.585,1.06
		c-0.387,0.288-0.852,0.432-1.386,0.432c-0.54,0-1-0.144-1.392-0.432c-0.39-0.29-0.584-0.643-0.584-1.06
		c0-0.401,0.194-0.742,0.584-1.03c0.392-0.295,0.852-0.436,1.392-0.436c0.534,0,0.999,0.141,1.386,0.436
		C114.898,207.446,115.093,207.787,115.093,208.188 M115.093,217.029c0,0.398-0.195,0.739-0.585,1.029
		c-0.387,0.293-0.852,0.437-1.386,0.437c-0.54,0-1-0.144-1.392-0.437c-0.39-0.29-0.584-0.631-0.584-1.029
		c0-0.397,0.194-0.742,0.584-1.03c0.392-0.288,0.852-0.434,1.392-0.434c0.534,0,0.999,0.146,1.386,0.434
		C114.898,216.287,115.093,216.632,115.093,217.029 M115.093,225.844c0,0.416-0.195,0.772-0.585,1.061
		c-0.387,0.29-0.852,0.432-1.386,0.432c-0.54,0-1-0.142-1.392-0.432c-0.39-0.288-0.584-0.645-0.584-1.061
		c0-0.396,0.194-0.742,0.584-1.032c0.392-0.287,0.852-0.432,1.392-0.432c0.534,0,0.999,0.145,1.386,0.432
		C114.898,225.102,115.093,225.447,115.093,225.844"/>
	<path fill="#19A2A3" d="M135.219,208.244c0,0.403-0.191,0.744-0.582,1.034c-0.387,0.288-0.851,0.432-1.39,0.432
		c-0.561,0-1.038-0.144-1.425-0.432c-0.391-0.29-0.586-0.631-0.586-1.034c0-0.413,0.195-0.771,0.586-1.058
		c0.387-0.29,0.864-0.435,1.425-0.435c0.539,0,1.003,0.145,1.39,0.435C135.028,207.474,135.219,207.831,135.219,208.244
		 M135.219,214.129c0,0.401-0.191,0.747-0.582,1.037c-0.387,0.288-0.851,0.43-1.39,0.43c-0.561,0-1.038-0.142-1.425-0.43
		c-0.391-0.29-0.586-0.636-0.586-1.037c0-0.412,0.195-0.768,0.586-1.058c0.387-0.29,0.864-0.436,1.425-0.436
		c0.539,0,1.003,0.146,1.39,0.436C135.028,213.361,135.219,213.717,135.219,214.129 M135.219,217.062
		c0,0.396-0.191,0.742-0.582,1.027c-0.387,0.285-0.851,0.437-1.39,0.437c-0.561,0-1.038-0.151-1.425-0.437
		c-0.391-0.285-0.586-0.631-0.586-1.027c0-0.399,0.195-0.745,0.586-1.032c0.387-0.285,0.864-0.434,1.425-0.434
		c0.539,0,1.003,0.148,1.39,0.434C135.028,216.316,135.219,216.662,135.219,217.062 M135.219,220.021
		c0,0.395-0.191,0.74-0.582,1.025c-0.387,0.29-0.851,0.432-1.39,0.432c-0.561,0-1.038-0.142-1.425-0.432
		c-0.391-0.285-0.586-0.631-0.586-1.025c0-0.427,0.195-0.774,0.586-1.064c0.387-0.29,0.864-0.432,1.425-0.432
		c0.539,0,1.003,0.142,1.39,0.432C135.028,219.247,135.219,219.595,135.219,220.021 M135.219,222.944
		c0,0.401-0.191,0.742-0.582,1.027c-0.387,0.293-0.851,0.441-1.39,0.441c-0.561,0-1.038-0.148-1.425-0.441
		c-0.391-0.285-0.586-0.626-0.586-1.027c0-0.395,0.195-0.742,0.586-1.03c0.387-0.29,0.864-0.436,1.425-0.436
		c0.539,0,1.003,0.146,1.39,0.436C135.028,222.202,135.219,222.55,135.219,222.944 M135.219,225.904c0,0.399-0.191,0.74-0.582,1.027
		c-0.387,0.29-0.851,0.437-1.39,0.437c-0.561,0-1.038-0.146-1.425-0.437c-0.391-0.287-0.586-0.628-0.586-1.027
		c0-0.42,0.195-0.774,0.586-1.063c0.387-0.283,0.864-0.429,1.425-0.429c0.539,0,1.003,0.146,1.39,0.429
		C135.028,225.13,135.219,225.484,135.219,225.904 M134.659,211.176c0,0.339-0.167,0.629-0.503,0.88
		c-0.334,0.25-0.73,0.376-1.188,0.376c-0.459,0-0.852-0.126-1.188-0.376c-0.341-0.251-0.503-0.541-0.503-0.88
		c0-0.338,0.162-0.633,0.503-0.881c0.337-0.253,0.729-0.374,1.188-0.374c0.457,0,0.854,0.121,1.188,0.374
		C134.492,210.543,134.659,210.838,134.659,211.176 M137.881,210.366c0,0.339-0.164,0.634-0.486,0.884
		c-0.319,0.249-0.723,0.374-1.205,0.374c-0.457,0-0.843-0.125-1.166-0.374c-0.323-0.25-0.485-0.545-0.485-0.884
		c0-0.336,0.162-0.626,0.485-0.881c0.323-0.249,0.709-0.369,1.166-0.369c0.482,0,0.886,0.12,1.205,0.369
		C137.717,209.74,137.881,210.03,137.881,210.366 M140.619,212.636c0,0.422-0.196,0.774-0.582,1.06
		c-0.394,0.29-0.854,0.434-1.39,0.434c-0.567,0-1.042-0.144-1.433-0.434c-0.387-0.285-0.581-0.638-0.581-1.06
		c0-0.395,0.194-0.738,0.581-1.03c0.391-0.288,0.865-0.43,1.433-0.43c0.535,0,0.996,0.142,1.39,0.43
		C140.422,211.897,140.619,212.241,140.619,212.636 M143.355,214.851c0,0.418-0.195,0.766-0.581,1.044
		c-0.39,0.278-0.852,0.42-1.39,0.42c-0.564,0-1.043-0.142-1.43-0.42c-0.39-0.278-0.584-0.626-0.584-1.044
		c0-0.398,0.194-0.74,0.584-1.03c0.387-0.292,0.865-0.436,1.43-0.436c0.538,0,1,0.144,1.39,0.436
		C143.16,214.11,143.355,214.452,143.355,214.851 M146.095,217.062c0,0.396-0.194,0.742-0.589,1.027
		c-0.387,0.285-0.851,0.437-1.386,0.437c-0.564,0-1.039-0.151-1.411-0.437s-0.56-0.631-0.56-1.027c0-0.399,0.188-0.745,0.56-1.032
		c0.372-0.285,0.847-0.434,1.411-0.434c0.535,0,0.999,0.148,1.386,0.434C145.901,216.316,146.095,216.662,146.095,217.062
		 M148.828,214.851c0,0.418-0.191,0.766-0.58,1.044c-0.391,0.278-0.851,0.42-1.387,0.42c-0.539,0-1.003-0.142-1.39-0.42
		c-0.39-0.278-0.584-0.626-0.584-1.044c0-0.398,0.194-0.74,0.584-1.03c0.387-0.292,0.851-0.436,1.39-0.436
		c0.536,0,0.996,0.144,1.387,0.436C148.636,214.11,148.828,214.452,148.828,214.851 M151.569,212.636
		c0,0.422-0.194,0.774-0.581,1.06c-0.39,0.29-0.854,0.434-1.39,0.434c-0.539,0-1-0.144-1.391-0.434
		c-0.39-0.285-0.588-0.638-0.588-1.06c0-0.395,0.198-0.738,0.588-1.03c0.391-0.288,0.852-0.43,1.391-0.43c0.535,0,1,0.142,1.39,0.43
		C151.375,211.897,151.569,212.241,151.569,212.636 M150.485,210.366c0,0.339,0.162,0.634,0.503,0.884
		c0.333,0.249,0.729,0.374,1.188,0.374c0.454,0,0.851-0.125,1.185-0.374c0.336-0.25,0.503-0.545,0.503-0.884
		c0-0.336-0.167-0.626-0.503-0.881c-0.334-0.249-0.73-0.369-1.185-0.369c-0.458,0-0.854,0.12-1.188,0.369
		C150.647,209.74,150.485,210.03,150.485,210.366 M153.179,208.244c0,0.403,0.191,0.744,0.584,1.034
		c0.39,0.288,0.852,0.432,1.39,0.432c0.54,0,1-0.144,1.39-0.432c0.39-0.29,0.582-0.631,0.582-1.034c0-0.413-0.192-0.771-0.582-1.058
		c-0.39-0.29-0.85-0.435-1.39-0.435c-0.538,0-1,0.145-1.39,0.435C153.371,207.474,153.179,207.831,153.179,208.244 M157.125,214.129
		c0,0.401-0.192,0.747-0.582,1.037c-0.39,0.288-0.85,0.43-1.39,0.43c-0.538,0-1-0.142-1.39-0.43
		c-0.393-0.29-0.584-0.636-0.584-1.037c0-0.412,0.191-0.768,0.584-1.058c0.39-0.29,0.852-0.436,1.39-0.436
		c0.54,0,1,0.146,1.39,0.436S157.125,213.717,157.125,214.129 M157.125,217.062c0,0.396-0.192,0.742-0.582,1.027
		s-0.85,0.437-1.39,0.437c-0.538,0-1-0.151-1.39-0.437c-0.393-0.285-0.584-0.631-0.584-1.027c0-0.399,0.191-0.745,0.584-1.032
		c0.39-0.285,0.852-0.434,1.39-0.434c0.54,0,1,0.148,1.39,0.434C156.932,216.316,157.125,216.662,157.125,217.062 M157.125,220.021
		c0,0.395-0.192,0.74-0.582,1.025c-0.39,0.29-0.85,0.432-1.39,0.432c-0.538,0-1-0.142-1.39-0.432
		c-0.393-0.285-0.584-0.631-0.584-1.025c0-0.427,0.191-0.774,0.584-1.064c0.39-0.29,0.852-0.432,1.39-0.432
		c0.54,0,1,0.142,1.39,0.432S157.125,219.595,157.125,220.021 M157.125,222.944c0,0.401-0.192,0.742-0.582,1.027
		c-0.39,0.293-0.85,0.441-1.39,0.441c-0.538,0-1-0.148-1.39-0.441c-0.393-0.285-0.584-0.626-0.584-1.027
		c0-0.395,0.191-0.742,0.584-1.03c0.39-0.29,0.852-0.436,1.39-0.436c0.54,0,1,0.146,1.39,0.436
		C156.932,222.202,157.125,222.55,157.125,222.944 M157.125,225.904c0,0.399-0.192,0.74-0.582,1.027
		c-0.39,0.29-0.85,0.437-1.39,0.437c-0.538,0-1-0.146-1.39-0.437c-0.393-0.287-0.584-0.628-0.584-1.027
		c0-0.42,0.191-0.774,0.584-1.063c0.39-0.283,0.852-0.429,1.39-0.429c0.54,0,1,0.146,1.39,0.429
		C156.932,225.13,157.125,225.484,157.125,225.904 M153.746,211.176c0,0.339,0.159,0.629,0.481,0.88
		c0.323,0.25,0.724,0.376,1.21,0.376c0.454,0,0.851-0.126,1.188-0.376c0.333-0.251,0.5-0.541,0.5-0.88
		c0-0.338-0.167-0.633-0.5-0.881c-0.337-0.253-0.733-0.374-1.188-0.374c-0.486,0-0.887,0.121-1.21,0.374
		C153.905,210.543,153.746,210.838,153.746,211.176"/>
	<path fill="#19A2A3" d="M166.508,216.94c0,0.401-0.194,0.743-0.585,1.028c-0.391,0.292-0.865,0.436-1.429,0.436
		c-0.536,0-1-0.144-1.39-0.436c-0.39-0.285-0.582-0.641-0.582-1.056c0-0.399,0.192-0.745,0.582-1.035
		c0.39-0.282,0.865-0.431,1.433-0.431c0.531,0,0.995,0.148,1.386,0.449C166.314,216.196,166.508,216.539,166.508,216.94
		 M166.909,213.979c0,0.406-0.191,0.744-0.581,1.037c-0.39,0.29-0.854,0.432-1.39,0.432c-0.563,0-1.031-0.142-1.407-0.432
		c-0.379-0.293-0.567-0.646-0.567-1.061c0-0.403,0.195-0.744,0.585-1.032c0.39-0.29,0.854-0.434,1.39-0.434s1,0.148,1.39,0.45
		C166.717,213.233,166.909,213.584,166.909,213.979 M166.991,219.898c0,0.399-0.194,0.737-0.582,1.03
		c-0.39,0.29-0.854,0.436-1.394,0.436c-0.56,0-1.031-0.146-1.406-0.436c-0.376-0.293-0.564-0.638-0.564-1.065
		c0-0.394,0.195-0.739,0.585-1.025c0.387-0.289,0.852-0.434,1.386-0.434c0.54,0,1.004,0.151,1.394,0.448
		C166.796,219.154,166.991,219.502,166.991,219.898 M168.763,211.385c0,0.399-0.195,0.745-0.585,1.03
		c-0.391,0.29-0.851,0.432-1.391,0.432c-0.559,0-1.031-0.148-1.407-0.45c-0.375-0.297-0.563-0.643-0.563-1.042
		c0-0.398,0.195-0.739,0.585-1.029c0.388-0.293,0.852-0.437,1.386-0.437c0.54,0,1,0.144,1.391,0.437
		C168.568,210.615,168.763,210.963,168.763,211.385 M168.844,222.529c0,0.396-0.202,0.74-0.605,1.027
		c-0.401,0.29-0.872,0.437-1.408,0.437c-0.538,0-1.003-0.153-1.39-0.45c-0.39-0.299-0.584-0.652-0.584-1.042
		c0-0.398,0.194-0.744,0.584-1.036c0.387-0.288,0.865-0.43,1.43-0.43c0.534,0,0.999,0.142,1.389,0.43
		C168.65,221.757,168.844,222.109,168.844,222.529 M171.703,209.413c0,0.418-0.195,0.766-0.586,1.046
		c-0.39,0.278-0.851,0.416-1.39,0.416c-0.535,0-1-0.142-1.386-0.432c-0.39-0.285-0.585-0.636-0.585-1.03
		c0-0.399,0.195-0.744,0.585-1.034c0.386-0.288,0.851-0.432,1.386-0.432c0.563,0,1.036,0.144,1.411,0.432
		C171.514,208.669,171.703,209.014,171.703,209.413 M171.741,224.469c0,0.422-0.195,0.766-0.585,1.046
		c-0.386,0.278-0.85,0.415-1.386,0.415c-0.563,0-1.036-0.142-1.41-0.432c-0.376-0.285-0.564-0.631-0.564-1.029
		c0-0.396,0.195-0.742,0.585-1.03c0.39-0.29,0.851-0.429,1.39-0.429c0.536,0,1,0.139,1.386,0.429
		C171.545,223.727,171.741,224.072,171.741,224.469 M175.368,208.276c0,0.418-0.198,0.766-0.585,1.046
		c-0.39,0.274-0.852,0.418-1.39,0.418c-0.563,0-1.035-0.146-1.411-0.432c-0.376-0.29-0.561-0.636-0.561-1.032
		c0-0.395,0.191-0.74,0.582-1.03c0.391-0.287,0.851-0.434,1.39-0.434c0.538,0,1,0.146,1.39,0.434
		C175.169,207.536,175.368,207.882,175.368,208.276 M175.407,225.633c0,0.399-0.201,0.74-0.606,1.035
		c-0.4,0.287-0.869,0.432-1.407,0.432c-0.539,0-0.999-0.145-1.39-0.432c-0.391-0.295-0.582-0.636-0.582-1.035
		c0-0.417,0.191-0.766,0.582-1.044s0.864-0.42,1.432-0.42c0.536,0,0.996,0.146,1.387,0.437
		C175.212,224.893,175.407,225.234,175.407,225.633 M179.353,207.889c0,0.399-0.195,0.745-0.586,1.03
		c-0.39,0.29-0.85,0.432-1.386,0.432c-0.567,0-1.042-0.137-1.433-0.413c-0.387-0.278-0.581-0.629-0.581-1.049
		c0-0.401,0.194-0.742,0.581-1.032c0.391-0.29,0.852-0.436,1.391-0.436c0.563,0,1.038,0.146,1.428,0.436
		C179.158,207.146,179.353,207.487,179.353,207.889 M179.314,226.056c0,0.396-0.199,0.742-0.585,1.024
		c-0.391,0.29-0.854,0.437-1.39,0.437c-0.539,0-1-0.146-1.391-0.437c-0.387-0.282-0.581-0.628-0.581-1.024
		c0-0.423,0.194-0.771,0.581-1.052c0.391-0.28,0.852-0.415,1.391-0.415c0.563,0,1.035,0.145,1.407,0.43
		C179.123,225.311,179.314,225.656,179.314,226.056 M183.297,208.276c0,0.396-0.194,0.742-0.584,1.032
		c-0.39,0.285-0.865,0.432-1.429,0.432c-0.539,0-1-0.144-1.39-0.418c-0.387-0.28-0.581-0.628-0.581-1.046
		c0-0.395,0.194-0.74,0.581-1.03c0.39-0.287,0.851-0.434,1.39-0.434c0.535,0,1.006,0.146,1.407,0.434
		C183.096,207.536,183.297,207.882,183.297,208.276 M183.259,225.633c0,0.399-0.194,0.74-0.584,1.035
		c-0.392,0.287-0.855,0.432-1.391,0.432c-0.539,0-1-0.145-1.39-0.432c-0.387-0.295-0.581-0.636-0.581-1.035
		c0-0.398,0.184-0.74,0.56-1.027c0.376-0.29,0.847-0.437,1.411-0.437c0.535,0,0.999,0.142,1.391,0.42
		C183.065,224.867,183.259,225.216,183.259,225.633 M186.883,224.469c0,0.398-0.192,0.744-0.564,1.029
		c-0.375,0.29-0.848,0.432-1.411,0.432c-0.535,0-1-0.137-1.39-0.415c-0.386-0.28-0.581-0.624-0.581-1.046
		c0-0.396,0.195-0.742,0.581-1.03c0.39-0.29,0.854-0.429,1.39-0.429c0.536,0,1,0.139,1.39,0.429
		C186.687,223.727,186.883,224.072,186.883,224.469 M186.921,209.413c0,0.395-0.188,0.745-0.563,1.03
		c-0.376,0.29-0.844,0.432-1.407,0.432c-0.539,0-1.004-0.138-1.394-0.416c-0.387-0.28-0.582-0.628-0.582-1.046
		c0-0.399,0.195-0.744,0.582-1.034c0.39-0.288,0.854-0.432,1.394-0.432c0.534,0,0.996,0.144,1.383,0.432
		C186.726,208.669,186.921,209.014,186.921,209.413 M189.821,222.501c0,0.39-0.194,0.743-0.585,1.042
		c-0.389,0.297-0.854,0.45-1.393,0.45c-0.532,0-0.996-0.146-1.386-0.437c-0.387-0.287-0.581-0.631-0.581-1.027
		c0-0.42,0.183-0.772,0.563-1.064c0.375-0.288,0.843-0.43,1.403-0.43c0.538,0,1.004,0.142,1.393,0.43
		C189.626,221.757,189.821,222.103,189.821,222.501 M189.861,211.354c0,0.399-0.188,0.745-0.564,1.042
		c-0.375,0.302-0.843,0.45-1.406,0.45c-0.54,0-1.004-0.142-1.391-0.432c-0.391-0.285-0.585-0.631-0.585-1.03
		c0-0.422,0.194-0.77,0.585-1.06c0.387-0.293,0.851-0.437,1.391-0.437c0.534,0,0.995,0.144,1.386,0.437
		C189.666,210.615,189.861,210.956,189.861,211.354 M191.632,219.863c0,0.428-0.188,0.772-0.563,1.065
		c-0.379,0.29-0.847,0.436-1.41,0.436c-0.536,0-1-0.146-1.39-0.436c-0.391-0.293-0.582-0.631-0.582-1.03
		c0-0.396,0.191-0.744,0.582-1.046c0.39-0.297,0.854-0.448,1.39-0.448c0.538,0,1.003,0.145,1.39,0.434
		C191.438,219.124,191.632,219.47,191.632,219.863 M191.753,213.955c0,0.415-0.195,0.768-0.585,1.061
		c-0.39,0.29-0.854,0.432-1.39,0.432c-0.563,0-1.039-0.142-1.429-0.432c-0.39-0.293-0.585-0.631-0.585-1.037
		c0-0.395,0.195-0.745,0.585-1.039c0.39-0.302,0.854-0.45,1.39-0.45c0.536,0,1.007,0.144,1.412,0.434
		C191.551,213.211,191.753,213.552,191.753,213.955 M192.158,216.913c0,0.415-0.195,0.771-0.585,1.056
		c-0.39,0.292-0.851,0.436-1.39,0.436s-1.007-0.144-1.41-0.436c-0.402-0.285-0.604-0.627-0.604-1.028s0.194-0.744,0.581-1.044
		c0.39-0.301,0.854-0.449,1.394-0.449c0.563,0,1.039,0.148,1.429,0.431C191.962,216.168,192.158,216.514,192.158,216.913"/>
	<path fill="#19A2A3" d="M200.85,208.244c0,0.401-0.194,0.744-0.581,1.032c-0.39,0.287-0.854,0.434-1.39,0.434
		c-0.539,0-0.999-0.146-1.391-0.434c-0.39-0.288-0.584-0.631-0.584-1.032c0-0.413,0.194-0.768,0.584-1.056
		c0.392-0.29,0.852-0.434,1.391-0.434c0.535,0,1,0.144,1.39,0.434C200.656,207.477,200.85,207.831,200.85,208.244 M200.85,211.179
		c0,0.395-0.194,0.74-0.581,1.027c-0.39,0.29-0.854,0.432-1.39,0.432c-0.539,0-0.999-0.142-1.391-0.432
		c-0.39-0.287-0.584-0.633-0.584-1.027c0-0.401,0.194-0.747,0.584-1.039c0.392-0.286,0.852-0.43,1.391-0.43
		c0.535,0,1,0.144,1.39,0.43C200.656,210.432,200.85,210.777,200.85,211.179 M200.85,214.129c0,0.399-0.194,0.745-0.581,1.037
		c-0.39,0.285-0.854,0.427-1.39,0.427c-0.539,0-0.999-0.142-1.391-0.427c-0.39-0.292-0.584-0.638-0.584-1.037
		c0-0.412,0.194-0.768,0.584-1.055c0.392-0.29,0.852-0.437,1.391-0.437c0.535,0,1,0.146,1.39,0.437
		C200.656,213.361,200.85,213.717,200.85,214.129 M200.85,217.063c0,0.395-0.194,0.74-0.581,1.025
		c-0.39,0.288-0.854,0.437-1.39,0.437c-0.539,0-0.999-0.148-1.391-0.437c-0.39-0.285-0.584-0.631-0.584-1.025
		c0-0.401,0.194-0.744,0.584-1.034c0.392-0.288,0.852-0.437,1.391-0.437c0.535,0,1,0.148,1.39,0.437
		C200.656,216.319,200.85,216.662,200.85,217.063 M200.85,220.02c0,0.394-0.194,0.739-0.581,1.027
		c-0.39,0.287-0.854,0.432-1.39,0.432c-0.539,0-0.999-0.145-1.391-0.432c-0.39-0.288-0.584-0.634-0.584-1.027
		c0-0.423,0.194-0.772,0.584-1.065c0.392-0.287,0.852-0.429,1.391-0.429c0.535,0,1,0.142,1.39,0.429
		C200.656,219.247,200.85,219.597,200.85,220.02 M200.85,222.944c0,0.399-0.194,0.742-0.581,1.03
		c-0.39,0.292-0.854,0.436-1.39,0.436c-0.539,0-0.999-0.144-1.391-0.436c-0.39-0.288-0.584-0.631-0.584-1.03
		c0-0.396,0.194-0.74,0.584-1.027c0.392-0.295,0.852-0.438,1.391-0.438c0.535,0,1,0.144,1.39,0.438
		C200.656,222.204,200.85,222.548,200.85,222.944 M200.85,225.904c0,0.401-0.194,0.74-0.581,1.025c-0.39,0.29-0.854,0.44-1.39,0.44
		c-0.539,0-0.999-0.15-1.391-0.44c-0.39-0.285-0.584-0.624-0.584-1.025c0-0.42,0.194-0.774,0.584-1.064
		c0.392-0.283,0.852-0.43,1.391-0.43c0.535,0,1,0.146,1.39,0.43C200.656,225.13,200.85,225.484,200.85,225.904 M204.839,208.244
		c0,0.401-0.196,0.744-0.586,1.032c-0.39,0.287-0.865,0.434-1.429,0.434c-0.538,0-0.999-0.146-1.39-0.434
		c-0.39-0.288-0.585-0.631-0.585-1.032c0-0.413,0.195-0.768,0.585-1.056c0.391-0.29,0.852-0.434,1.39-0.434
		c0.563,0,1.039,0.144,1.429,0.434C204.643,207.477,204.839,207.831,204.839,208.244 M204.839,217.063
		c0,0.395-0.196,0.74-0.586,1.025c-0.39,0.288-0.865,0.437-1.429,0.437c-0.538,0-0.999-0.148-1.39-0.437
		c-0.39-0.285-0.585-0.631-0.585-1.025c0-0.401,0.195-0.744,0.585-1.034c0.391-0.288,0.852-0.437,1.39-0.437
		c0.563,0,1.039,0.148,1.429,0.437C204.643,216.319,204.839,216.662,204.839,217.063 M208.784,208.216
		c0,0.418-0.194,0.771-0.584,1.047c-0.39,0.278-0.851,0.417-1.39,0.417c-0.536,0-1-0.139-1.39-0.417
		c-0.39-0.276-0.581-0.629-0.581-1.047c0-0.398,0.191-0.739,0.581-1.027c0.39-0.29,0.854-0.434,1.39-0.434
		c0.539,0,1,0.144,1.39,0.434C208.589,207.477,208.784,207.817,208.784,208.216 M208.784,216.938c0,0.406-0.194,0.745-0.584,1.032
		c-0.39,0.292-0.851,0.437-1.39,0.437c-0.536,0-1-0.145-1.39-0.437c-0.39-0.287-0.581-0.626-0.581-1.032
		c0-0.415,0.191-0.768,0.581-1.063c0.39-0.283,0.854-0.432,1.39-0.432c0.539,0,1,0.148,1.39,0.432
		C208.589,216.171,208.784,216.523,208.784,216.938 M211.521,219.006c0,0.396-0.194,0.739-0.584,1.027
		c-0.39,0.29-0.852,0.432-1.387,0.432c-0.563,0-1.035-0.142-1.411-0.432c-0.376-0.288-0.563-0.631-0.563-1.027
		c0-0.404,0.188-0.743,0.563-1.035c0.376-0.287,0.848-0.436,1.411-0.436c0.535,0,0.997,0.148,1.387,0.436
		C211.327,218.263,211.521,218.602,211.521,219.006 M212.125,215.387c0,0.398-0.195,0.742-0.586,1.03
		c-0.386,0.289-0.864,0.434-1.428,0.434c-0.536,0-0.996-0.145-1.387-0.434c-0.391-0.288-0.585-0.632-0.585-1.03
		c0-0.401,0.194-0.74,0.585-1.027c0.391-0.295,0.851-0.437,1.387-0.437c0.563,0,1.042,0.142,1.428,0.437
		C211.929,214.646,212.125,214.985,212.125,215.387 M212.252,209.74c0,0.396-0.2,0.744-0.59,1.03
		c-0.39,0.29-0.865,0.434-1.429,0.434c-0.538,0-1.002-0.144-1.39-0.434c-0.39-0.286-0.585-0.634-0.585-1.03
		c0-0.418,0.195-0.768,0.585-1.044c0.388-0.28,0.852-0.418,1.39-0.418c0.563,0,1.039,0.138,1.429,0.418
		C212.052,208.973,212.252,209.322,212.252,209.74 M213.255,212.547c0,0.399-0.196,0.745-0.586,1.035
		c-0.39,0.287-0.854,0.434-1.39,0.434c-0.538,0-1.003-0.146-1.39-0.434c-0.39-0.29-0.581-0.636-0.581-1.035
		c0-0.398,0.191-0.744,0.581-1.029c0.387-0.288,0.852-0.432,1.39-0.432c0.536,0,1,0.144,1.39,0.432
		C213.059,211.803,213.255,212.148,213.255,212.547 M214.18,221.156c0,0.394-0.195,0.739-0.585,1.029
		c-0.39,0.285-0.854,0.432-1.39,0.432c-0.536,0-1-0.146-1.39-0.432c-0.383-0.29-0.582-0.636-0.582-1.029
		c0-0.423,0.199-0.775,0.582-1.061c0.39-0.292,0.854-0.437,1.39-0.437c0.535,0,1,0.145,1.39,0.437
		C213.985,220.381,214.18,220.733,214.18,221.156 M216.435,223.485c0,0.398-0.195,0.742-0.585,1.027
		c-0.39,0.29-0.854,0.436-1.39,0.436c-0.536,0-1-0.146-1.39-0.436c-0.388-0.285-0.582-0.629-0.582-1.027
		c0-0.399,0.194-0.745,0.582-1.035c0.39-0.287,0.854-0.429,1.39-0.429c0.535,0,1,0.142,1.39,0.429
		C216.24,222.74,216.435,223.086,216.435,223.485 M218.527,225.933c0,0.398-0.188,0.744-0.563,1.032
		c-0.376,0.29-0.845,0.432-1.408,0.432c-0.538,0-1.003-0.142-1.39-0.432c-0.39-0.288-0.584-0.634-0.584-1.032
		c0-0.397,0.194-0.743,0.584-1.028c0.387-0.29,0.852-0.436,1.39-0.436c0.563,0,1.032,0.146,1.408,0.436
		C218.339,225.189,218.527,225.535,218.527,225.933"/>
	<path fill="#19A2A3" d="M227.868,208.188c0,0.417-0.194,0.77-0.585,1.06c-0.39,0.288-0.854,0.432-1.389,0.432
		c-0.564,0-1.043-0.144-1.43-0.432c-0.39-0.29-0.584-0.643-0.584-1.06c0-0.401,0.194-0.742,0.584-1.03
		c0.387-0.295,0.865-0.436,1.43-0.436c0.534,0,0.999,0.141,1.389,0.436C227.673,207.446,227.868,207.787,227.868,208.188
		 M227.868,211.146c0,0.396-0.194,0.737-0.585,1.029c-0.39,0.285-0.854,0.432-1.389,0.432c-0.564,0-1.043-0.146-1.43-0.432
		c-0.39-0.292-0.584-0.633-0.584-1.029c0-0.399,0.194-0.743,0.584-1.033c0.387-0.287,0.865-0.434,1.43-0.434
		c0.534,0,0.999,0.146,1.389,0.434C227.673,210.403,227.868,210.747,227.868,211.146 M227.868,214.073
		c0,0.416-0.194,0.775-0.585,1.061c-0.39,0.287-0.854,0.432-1.389,0.432c-0.564,0-1.043-0.145-1.43-0.432
		c-0.39-0.285-0.584-0.645-0.584-1.061c0-0.403,0.194-0.742,0.584-1.029c0.387-0.288,0.865-0.437,1.43-0.437
		c0.534,0,0.999,0.148,1.389,0.437C227.673,213.331,227.868,213.67,227.868,214.073 M227.868,217.029
		c0,0.398-0.194,0.739-0.585,1.029c-0.39,0.293-0.854,0.437-1.389,0.437c-0.564,0-1.043-0.144-1.43-0.437
		c-0.39-0.29-0.584-0.631-0.584-1.029c0-0.397,0.194-0.742,0.584-1.03c0.387-0.288,0.865-0.434,1.43-0.434
		c0.534,0,0.999,0.146,1.389,0.434C227.673,216.287,227.868,216.632,227.868,217.029 M227.868,219.959
		c0,0.417-0.194,0.772-0.585,1.06c-0.39,0.29-0.854,0.432-1.389,0.432c-0.564,0-1.043-0.142-1.43-0.432
		c-0.39-0.287-0.584-0.643-0.584-1.06c0-0.396,0.194-0.742,0.584-1.032c0.387-0.285,0.865-0.432,1.43-0.432
		c0.534,0,0.999,0.146,1.389,0.432C227.673,219.217,227.868,219.563,227.868,219.959 M227.868,222.914
		c0,0.401-0.194,0.74-0.585,1.035c-0.39,0.287-0.854,0.431-1.389,0.431c-0.564,0-1.043-0.144-1.43-0.431
		c-0.39-0.295-0.584-0.634-0.584-1.035c0-0.398,0.194-0.742,0.584-1.027c0.387-0.29,0.865-0.437,1.43-0.437
		c0.534,0,0.999,0.146,1.389,0.437C227.673,222.172,227.868,222.516,227.868,222.914 M227.868,225.844
		c0,0.416-0.194,0.772-0.585,1.061c-0.39,0.29-0.854,0.432-1.389,0.432c-0.564,0-1.043-0.142-1.43-0.432
		c-0.39-0.288-0.584-0.645-0.584-1.061c0-0.396,0.194-0.742,0.584-1.032c0.387-0.287,0.865-0.432,1.43-0.432
		c0.534,0,0.999,0.145,1.389,0.432C227.673,225.102,227.868,225.447,227.868,225.844 M231.853,208.188
		c0,0.417-0.195,0.77-0.585,1.06c-0.391,0.288-0.865,0.432-1.429,0.432c-0.539,0-1-0.144-1.39-0.432
		c-0.391-0.29-0.582-0.643-0.582-1.06c0-0.401,0.191-0.742,0.582-1.03c0.39-0.295,0.851-0.436,1.39-0.436
		c0.563,0,1.038,0.141,1.429,0.436C231.658,207.446,231.853,207.787,231.853,208.188 M231.853,217.029
		c0,0.398-0.195,0.739-0.585,1.029c-0.391,0.293-0.865,0.437-1.429,0.437c-0.539,0-1-0.144-1.39-0.437
		c-0.391-0.29-0.582-0.631-0.582-1.029c0-0.397,0.191-0.742,0.582-1.03c0.39-0.288,0.851-0.434,1.39-0.434
		c0.563,0,1.038,0.146,1.429,0.434C231.658,216.287,231.853,216.632,231.853,217.029 M231.853,225.844
		c0,0.416-0.195,0.772-0.585,1.061c-0.391,0.29-0.865,0.432-1.429,0.432c-0.539,0-1-0.142-1.39-0.432
		c-0.391-0.288-0.582-0.645-0.582-1.061c0-0.396,0.191-0.742,0.582-1.032c0.39-0.287,0.851-0.432,1.39-0.432
		c0.563,0,1.038,0.145,1.429,0.432C231.658,225.102,231.853,225.447,231.853,225.844 M235.799,208.188
		c0,0.417-0.195,0.77-0.586,1.06c-0.387,0.288-0.851,0.432-1.39,0.432c-0.535,0-1-0.144-1.39-0.432
		c-0.386-0.29-0.581-0.643-0.581-1.06c0-0.401,0.195-0.742,0.581-1.03c0.39-0.295,0.854-0.436,1.39-0.436
		c0.539,0,1.003,0.141,1.39,0.436C235.604,207.446,235.799,207.787,235.799,208.188 M235.799,217.029
		c0,0.398-0.195,0.739-0.586,1.029c-0.387,0.293-0.851,0.437-1.39,0.437c-0.535,0-1-0.144-1.39-0.437
		c-0.386-0.29-0.581-0.631-0.581-1.029c0-0.397,0.195-0.742,0.581-1.03c0.39-0.288,0.854-0.434,1.39-0.434
		c0.539,0,1.003,0.146,1.39,0.434C235.604,216.287,235.799,216.632,235.799,217.029 M235.799,225.844
		c0,0.416-0.195,0.772-0.586,1.061c-0.387,0.29-0.851,0.432-1.39,0.432c-0.535,0-1-0.142-1.39-0.432
		c-0.386-0.288-0.581-0.645-0.581-1.061c0-0.396,0.195-0.742,0.581-1.032c0.39-0.287,0.854-0.432,1.39-0.432
		c0.539,0,1.003,0.145,1.39,0.432C235.604,225.102,235.799,225.447,235.799,225.844 M239.783,208.188c0,0.417-0.194,0.77-0.58,1.06
		c-0.391,0.288-0.859,0.432-1.391,0.432c-0.539,0-0.999-0.144-1.389-0.432c-0.392-0.29-0.586-0.643-0.586-1.06
		c0-0.401,0.194-0.742,0.586-1.03c0.39-0.295,0.85-0.436,1.389-0.436c0.531,0,1,0.141,1.391,0.436
		C239.588,207.446,239.783,207.787,239.783,208.188 M239.783,217.029c0,0.398-0.194,0.739-0.58,1.029
		c-0.391,0.293-0.859,0.437-1.391,0.437c-0.539,0-0.999-0.144-1.389-0.437c-0.392-0.29-0.586-0.631-0.586-1.029
		c0-0.397,0.194-0.742,0.586-1.03c0.39-0.288,0.85-0.434,1.389-0.434c0.531,0,1,0.146,1.391,0.434
		C239.588,216.287,239.783,216.632,239.783,217.029 M239.783,225.844c0,0.416-0.194,0.772-0.58,1.061
		c-0.391,0.29-0.859,0.432-1.391,0.432c-0.539,0-0.999-0.142-1.389-0.432c-0.392-0.288-0.586-0.645-0.586-1.061
		c0-0.396,0.194-0.742,0.586-1.032c0.39-0.287,0.85-0.432,1.389-0.432c0.531,0,1,0.145,1.391,0.432
		C239.588,225.102,239.783,225.447,239.783,225.844"/>
	<path fill="#19A2A3" d="M259.112,210.251c0,0.398-0.191,0.742-0.567,1.025c-0.376,0.294-0.844,0.436-1.407,0.436
		c-0.539,0-1.003-0.139-1.39-0.417c-0.391-0.279-0.582-0.617-0.582-1.017c0-0.422,0.185-0.771,0.561-1.06
		c0.376-0.29,0.848-0.437,1.411-0.437c0.535,0,1,0.146,1.39,0.437C258.914,209.508,259.112,209.85,259.112,210.251 M259.151,224.8
		c0,0.397-0.194,0.747-0.586,1.044c-0.39,0.3-0.854,0.448-1.39,0.448c-0.563,0-1.041-0.142-1.428-0.432
		c-0.391-0.292-0.582-0.633-0.582-1.037c0-0.395,0.191-0.744,0.582-1.039c0.387-0.299,0.851-0.45,1.39-0.45
		c0.535,0,1.007,0.144,1.407,0.43C258.948,224.056,259.151,224.401,259.151,224.8 M259.151,213.174c0,0.422-0.194,0.77-0.586,1.06
		c-0.39,0.288-0.854,0.437-1.39,0.437c-0.538,0-0.999-0.148-1.389-0.437c-0.387-0.29-0.582-0.631-0.582-1.029
		c0-0.397,0.185-0.743,0.564-1.042c0.376-0.302,0.829-0.45,1.368-0.45c0.563,0,1.038,0.146,1.428,0.434
		C258.957,212.432,259.151,212.776,259.151,213.174 M261.767,215.356c0,0.399-0.188,0.749-0.564,1.046
		c-0.375,0.297-0.847,0.448-1.406,0.448c-0.54,0-1.004-0.145-1.394-0.434c-0.386-0.288-0.581-0.632-0.581-1.033
		c0-0.398,0.188-0.744,0.563-1.039c0.376-0.299,0.844-0.45,1.411-0.45c0.535,0,0.996,0.145,1.386,0.43
		C261.572,214.616,261.767,214.962,261.767,215.356 M262.05,208.312c0,0.395-0.198,0.739-0.589,1.025
		c-0.386,0.29-0.851,0.434-1.386,0.434c-0.538,0-1.007-0.14-1.41-0.418c-0.4-0.283-0.604-0.617-0.604-1.019
		c0-0.42,0.195-0.772,0.586-1.063c0.386-0.287,0.85-0.427,1.39-0.427c0.534,0,1.007,0.138,1.406,0.413
		C261.845,207.541,262.05,207.885,262.05,208.312 M262.773,225.844c0,0.397-0.194,0.743-0.584,1.03
		c-0.39,0.288-0.851,0.434-1.39,0.434c-0.536,0-1.003-0.139-1.39-0.417c-0.387-0.281-0.581-0.629-0.581-1.047
		c0-0.398,0.188-0.744,0.563-1.034c0.376-0.288,0.83-0.432,1.367-0.432c0.564,0,1.04,0.142,1.43,0.422
		C262.579,225.078,262.773,225.424,262.773,225.844 M265.231,216.915c0,0.393-0.188,0.738-0.563,1.025
		c-0.381,0.293-0.848,0.434-1.412,0.434c-0.534,0-0.999-0.139-1.389-0.42c-0.39-0.273-0.585-0.626-0.585-1.039
		c0-0.403,0.191-0.744,0.563-1.039c0.376-0.283,0.833-0.432,1.371-0.432c0.563,0,1.039,0.142,1.43,0.42
		C265.032,216.143,265.231,216.488,265.231,216.915 M265.954,207.914c0,0.399-0.188,0.745-0.563,1.035
		c-0.376,0.287-0.833,0.429-1.369,0.429c-0.563,0-1.041-0.134-1.428-0.412c-0.391-0.281-0.586-0.632-0.586-1.052
		c0-0.396,0.195-0.739,0.586-1.027c0.387-0.29,0.851-0.432,1.39-0.432c0.535,0,0.995,0.142,1.387,0.418
		C265.759,207.153,265.954,207.502,265.954,207.914 M266.719,225.812c0,0.401-0.194,0.745-0.585,1.035
		c-0.39,0.287-0.851,0.434-1.389,0.434c-0.536,0-1.004-0.144-1.408-0.42c-0.404-0.278-0.603-0.619-0.603-1.017
		c0-0.42,0.191-0.772,0.581-1.06c0.39-0.29,0.852-0.438,1.39-0.438c0.536,0,1.007,0.146,1.408,0.425
		C266.517,225.049,266.719,225.398,266.719,225.812 M268.574,218.495c0-0.399-0.201-0.742-0.609-1.032
		c-0.4-0.288-0.869-0.434-1.407-0.434c-0.536,0-1,0.15-1.386,0.447c-0.392,0.302-0.586,0.649-0.586,1.049
		c0,0.396,0.203,0.742,0.603,1.03c0.404,0.287,0.872,0.429,1.411,0.429c0.535,0,0.999-0.148,1.386-0.445
		C268.375,219.237,268.574,218.895,268.574,218.495 M269.698,208.873c0,0.401-0.188,0.746-0.563,1.048
		c-0.376,0.3-0.845,0.448-1.408,0.448c-0.538,0-1.003-0.146-1.39-0.434c-0.39-0.288-0.585-0.634-0.585-1.03s0.188-0.747,0.564-1.049
		c0.376-0.297,0.847-0.45,1.41-0.45c0.536,0,0.996,0.148,1.39,0.441C269.503,208.133,269.698,208.474,269.698,208.873
		 M269.861,224.023c0,0.394-0.195,0.739-0.585,1.029c-0.39,0.288-0.858,0.432-1.39,0.432c-0.536,0-1.007-0.137-1.412-0.417
		c-0.399-0.274-0.602-0.617-0.602-1.019c0-0.413,0.195-0.768,0.581-1.058c0.394-0.29,0.854-0.437,1.394-0.437
		c0.535,0,1.006,0.14,1.411,0.422C269.659,223.258,269.861,223.601,269.861,224.023 M270.463,221.093
		c0,0.399-0.194,0.747-0.585,1.047c-0.387,0.297-0.851,0.445-1.391,0.445c-0.534,0-1.007-0.142-1.406-0.432
		c-0.4-0.288-0.607-0.631-0.607-1.027c0-0.423,0.195-0.775,0.583-1.065c0.393-0.287,0.856-0.427,1.393-0.427
		c0.538,0,1.007,0.14,1.411,0.427C270.265,220.351,270.463,220.696,270.463,221.093"/>
	<path fill="#19A2A3" d="M279.242,208.188c0,0.417-0.195,0.77-0.586,1.06c-0.39,0.288-0.864,0.432-1.428,0.432
		c-0.539,0-1-0.144-1.391-0.432c-0.39-0.29-0.581-0.643-0.581-1.06c0-0.401,0.191-0.742,0.581-1.03
		c0.391-0.295,0.852-0.436,1.391-0.436c0.563,0,1.038,0.141,1.428,0.436C279.046,207.446,279.242,207.787,279.242,208.188
		 M279.242,211.146c0,0.396-0.195,0.737-0.586,1.029c-0.39,0.285-0.864,0.432-1.428,0.432c-0.539,0-1-0.146-1.391-0.432
		c-0.39-0.292-0.581-0.633-0.581-1.029c0-0.399,0.191-0.743,0.581-1.033c0.391-0.287,0.852-0.434,1.391-0.434
		c0.563,0,1.038,0.146,1.428,0.434C279.046,210.403,279.242,210.747,279.242,211.146 M279.242,214.073
		c0,0.416-0.195,0.775-0.586,1.061c-0.39,0.287-0.864,0.432-1.428,0.432c-0.539,0-1-0.145-1.391-0.432
		c-0.39-0.285-0.581-0.645-0.581-1.061c0-0.403,0.191-0.742,0.581-1.029c0.391-0.288,0.852-0.437,1.391-0.437
		c0.563,0,1.038,0.148,1.428,0.437C279.046,213.331,279.242,213.67,279.242,214.073 M279.242,217.029
		c0,0.398-0.195,0.739-0.586,1.029c-0.39,0.293-0.864,0.437-1.428,0.437c-0.539,0-1-0.144-1.391-0.437
		c-0.39-0.29-0.581-0.631-0.581-1.029c0-0.397,0.191-0.742,0.581-1.03c0.391-0.288,0.852-0.434,1.391-0.434
		c0.563,0,1.038,0.146,1.428,0.434C279.046,216.287,279.242,216.632,279.242,217.029 M279.242,219.959
		c0,0.417-0.195,0.772-0.586,1.06c-0.39,0.29-0.864,0.432-1.428,0.432c-0.539,0-1-0.142-1.391-0.432
		c-0.39-0.287-0.581-0.643-0.581-1.06c0-0.396,0.191-0.742,0.581-1.032c0.391-0.285,0.852-0.432,1.391-0.432
		c0.563,0,1.038,0.146,1.428,0.432C279.046,219.217,279.242,219.563,279.242,219.959 M279.242,222.914
		c0,0.401-0.195,0.74-0.586,1.035c-0.39,0.287-0.864,0.431-1.428,0.431c-0.539,0-1-0.144-1.391-0.431
		c-0.39-0.295-0.581-0.634-0.581-1.035c0-0.398,0.191-0.742,0.581-1.027c0.391-0.29,0.852-0.437,1.391-0.437
		c0.563,0,1.038,0.146,1.428,0.437C279.046,222.172,279.242,222.516,279.242,222.914 M279.242,225.844
		c0,0.416-0.195,0.772-0.586,1.061c-0.39,0.29-0.864,0.432-1.428,0.432c-0.539,0-1-0.142-1.391-0.432
		c-0.39-0.288-0.581-0.645-0.581-1.061c0-0.396,0.191-0.742,0.581-1.032c0.391-0.287,0.852-0.432,1.391-0.432
		c0.563,0,1.038,0.145,1.428,0.432C279.046,225.102,279.242,225.447,279.242,225.844 M283.187,217.029
		c0,0.398-0.188,0.739-0.566,1.029c-0.373,0.293-0.845,0.437-1.408,0.437c-0.538,0-1-0.144-1.39-0.437
		c-0.387-0.29-0.581-0.631-0.581-1.029c0-0.397,0.194-0.742,0.581-1.03c0.39-0.288,0.852-0.434,1.39-0.434
		c0.563,0,1.035,0.146,1.408,0.434C283,216.287,283.187,216.632,283.187,217.029 M287.171,217.029c0,0.398-0.194,0.739-0.581,1.029
		c-0.39,0.293-0.854,0.437-1.39,0.437c-0.539,0-1.007-0.144-1.391-0.437c-0.39-0.29-0.584-0.631-0.584-1.029
		c0-0.397,0.194-0.742,0.584-1.03c0.384-0.288,0.852-0.434,1.391-0.434c0.535,0,1,0.146,1.39,0.434
		C286.977,216.287,287.171,216.632,287.171,217.029 M291.157,217.029c0,0.398-0.195,0.739-0.582,1.029
		c-0.39,0.293-0.851,0.437-1.393,0.437c-0.535,0-0.997-0.144-1.387-0.437c-0.39-0.29-0.584-0.631-0.584-1.029
		c0-0.397,0.194-0.742,0.584-1.03s0.852-0.434,1.387-0.434c0.542,0,1.003,0.146,1.393,0.434
		C290.961,216.287,291.157,216.632,291.157,217.029 M295.145,217.029c0,0.398-0.195,0.739-0.585,1.029
		c-0.386,0.293-0.865,0.437-1.429,0.437c-0.54,0-1-0.144-1.39-0.437c-0.39-0.29-0.585-0.631-0.585-1.029
		c0-0.397,0.195-0.742,0.585-1.03s0.85-0.434,1.39-0.434c0.563,0,1.043,0.146,1.429,0.434
		C294.95,216.287,295.145,216.632,295.145,217.029 M299.09,208.188c0,0.417-0.194,0.77-0.583,1.06
		c-0.395,0.288-0.855,0.432-1.391,0.432s-0.999-0.144-1.387-0.432c-0.39-0.29-0.584-0.643-0.584-1.06
		c0-0.401,0.194-0.742,0.584-1.03c0.388-0.295,0.852-0.436,1.387-0.436s0.996,0.141,1.391,0.436
		C298.896,207.446,299.09,207.787,299.09,208.188 M299.09,211.146c0,0.396-0.194,0.737-0.583,1.029
		c-0.395,0.285-0.855,0.432-1.391,0.432s-0.999-0.146-1.387-0.432c-0.39-0.292-0.584-0.633-0.584-1.029
		c0-0.399,0.194-0.743,0.584-1.033c0.388-0.287,0.852-0.434,1.387-0.434s0.996,0.146,1.391,0.434
		C298.896,210.403,299.09,210.747,299.09,211.146 M299.09,214.073c0,0.416-0.194,0.775-0.583,1.061
		c-0.395,0.287-0.855,0.432-1.391,0.432s-0.999-0.145-1.387-0.432c-0.39-0.285-0.584-0.645-0.584-1.061
		c0-0.403,0.194-0.742,0.584-1.029c0.388-0.288,0.852-0.437,1.387-0.437s0.996,0.148,1.391,0.437
		C298.896,213.331,299.09,213.67,299.09,214.073 M299.09,217.029c0,0.398-0.194,0.739-0.583,1.029
		c-0.395,0.293-0.855,0.437-1.391,0.437s-0.999-0.144-1.387-0.437c-0.39-0.29-0.584-0.631-0.584-1.029
		c0-0.397,0.194-0.742,0.584-1.03c0.388-0.288,0.852-0.434,1.387-0.434s0.996,0.146,1.391,0.434
		C298.896,216.287,299.09,216.632,299.09,217.029 M299.09,219.959c0,0.417-0.194,0.772-0.583,1.06
		c-0.395,0.29-0.855,0.432-1.391,0.432s-0.999-0.142-1.387-0.432c-0.39-0.287-0.584-0.643-0.584-1.06
		c0-0.396,0.194-0.742,0.584-1.032c0.388-0.285,0.852-0.432,1.387-0.432s0.996,0.146,1.391,0.432
		C298.896,219.217,299.09,219.563,299.09,219.959 M299.09,222.914c0,0.401-0.194,0.74-0.583,1.035
		c-0.395,0.287-0.855,0.431-1.391,0.431s-0.999-0.144-1.387-0.431c-0.39-0.295-0.584-0.634-0.584-1.035
		c0-0.398,0.194-0.742,0.584-1.027c0.388-0.29,0.852-0.437,1.387-0.437s0.996,0.146,1.391,0.437
		C298.896,222.172,299.09,222.516,299.09,222.914 M299.09,225.844c0,0.416-0.194,0.772-0.583,1.061
		c-0.395,0.29-0.855,0.432-1.391,0.432s-0.999-0.142-1.387-0.432c-0.39-0.288-0.584-0.645-0.584-1.061
		c0-0.396,0.194-0.742,0.584-1.032c0.388-0.287,0.852-0.432,1.387-0.432s0.996,0.145,1.391,0.432
		C298.896,225.102,299.09,225.447,299.09,225.844"/>
	<path fill="#19A2A3" d="M309.279,208.219c0,0.424-0.195,0.784-0.578,1.078c-0.387,0.297-0.857,0.443-1.418,0.443
		c-0.531,0-0.988-0.146-1.375-0.443c-0.383-0.294-0.574-0.654-0.574-1.078c0-0.406,0.191-0.759,0.574-1.056
		c0.387-0.295,0.844-0.44,1.375-0.44c0.561,0,1.031,0.146,1.418,0.44C309.084,207.46,309.279,207.813,309.279,208.219
		 M309.279,211.176c0,0.404-0.195,0.757-0.578,1.051c-0.387,0.295-0.857,0.443-1.418,0.443c-0.531,0-0.988-0.148-1.375-0.443
		c-0.383-0.294-0.574-0.646-0.574-1.051c0-0.408,0.191-0.758,0.574-1.053c0.387-0.297,0.844-0.443,1.375-0.443
		c0.561,0,1.031,0.146,1.418,0.443C309.084,210.418,309.279,210.768,309.279,211.176 M309.279,214.088
		c0,0.422-0.195,0.781-0.578,1.071c-0.387,0.29-0.857,0.437-1.418,0.437c-0.531,0-0.988-0.146-1.375-0.437
		c-0.383-0.29-0.574-0.649-0.574-1.071c0-0.406,0.191-0.75,0.574-1.042c0.387-0.29,0.844-0.438,1.375-0.438
		c0.561,0,1.031,0.148,1.418,0.438C309.084,213.338,309.279,213.682,309.279,214.088 M309.279,217.045
		c0,0.401-0.195,0.752-0.578,1.039c-0.387,0.29-0.857,0.441-1.418,0.441c-0.531,0-0.988-0.151-1.375-0.441
		c-0.383-0.287-0.574-0.638-0.574-1.039s0.191-0.749,0.574-1.039c0.387-0.295,0.844-0.44,1.375-0.44c0.561,0,1.031,0.146,1.418,0.44
		C309.084,216.296,309.279,216.644,309.279,217.045 M309.279,219.959c0,0.417-0.195,0.772-0.578,1.06
		c-0.387,0.29-0.857,0.432-1.418,0.432c-0.531,0-0.988-0.142-1.375-0.432c-0.383-0.287-0.574-0.643-0.574-1.06
		c0-0.396,0.191-0.742,0.574-1.032c0.387-0.285,0.844-0.432,1.375-0.432c0.561,0,1.031,0.146,1.418,0.432
		C309.084,219.217,309.279,219.563,309.279,219.959 M309.279,222.914c0,0.401-0.195,0.74-0.578,1.035
		c-0.387,0.287-0.857,0.431-1.418,0.431c-0.531,0-0.988-0.144-1.375-0.431c-0.383-0.295-0.574-0.634-0.574-1.035
		c0-0.398,0.191-0.742,0.574-1.027c0.387-0.29,0.844-0.437,1.375-0.437c0.561,0,1.031,0.146,1.418,0.437
		C309.084,222.172,309.279,222.516,309.279,222.914 M309.279,225.844c0,0.416-0.195,0.772-0.578,1.061
		c-0.387,0.29-0.857,0.432-1.418,0.432c-0.531,0-0.988-0.142-1.375-0.432c-0.383-0.288-0.574-0.645-0.574-1.061
		c0-0.396,0.191-0.742,0.574-1.032c0.387-0.287,0.844-0.432,1.375-0.432c0.561,0,1.031,0.145,1.418,0.432
		C309.084,225.102,309.279,225.447,309.279,225.844"/>
	<path fill="#19A2A3" d="M319.34,208.244c0,0.403-0.191,0.744-0.58,1.03c-0.391,0.287-0.852,0.434-1.391,0.434
		c-0.563,0-1.043-0.146-1.428-0.434c-0.387-0.286-0.586-0.627-0.586-1.03c0-0.413,0.199-0.768,0.586-1.056
		c0.385-0.29,0.865-0.437,1.428-0.437c0.539,0,1,0.146,1.391,0.437C319.148,207.477,319.34,207.831,319.34,208.244 M319.34,214.129
		c0,0.404-0.191,0.745-0.58,1.035c-0.391,0.29-0.852,0.432-1.391,0.432c-0.563,0-1.043-0.142-1.428-0.432
		c-0.387-0.29-0.586-0.631-0.586-1.035c0-0.412,0.199-0.77,0.586-1.055c0.385-0.29,0.865-0.437,1.428-0.437
		c0.539,0,1,0.146,1.391,0.437C319.148,213.359,319.34,213.717,319.34,214.129 M319.34,217.062c0,0.396-0.191,0.742-0.58,1.027
		c-0.391,0.288-0.852,0.437-1.391,0.437c-0.563,0-1.043-0.148-1.428-0.437c-0.387-0.285-0.586-0.631-0.586-1.027
		c0-0.399,0.199-0.745,0.586-1.03c0.385-0.287,0.865-0.436,1.428-0.436c0.539,0,1,0.148,1.391,0.436
		C319.148,216.316,319.34,216.662,319.34,217.062 M319.34,220.017c0,0.401-0.191,0.74-0.58,1.032
		c-0.391,0.29-0.852,0.432-1.391,0.432c-0.563,0-1.043-0.142-1.428-0.432c-0.387-0.292-0.586-0.631-0.586-1.032
		c0-0.42,0.199-0.772,0.586-1.063c0.385-0.287,0.865-0.429,1.428-0.429c0.539,0,1,0.142,1.391,0.429
		C319.148,219.244,319.34,219.597,319.34,220.017 M319.34,222.944c0,0.396-0.191,0.742-0.58,1.03
		c-0.391,0.292-0.852,0.434-1.391,0.434c-0.563,0-1.043-0.142-1.428-0.434c-0.387-0.288-0.586-0.634-0.586-1.03
		c0-0.392,0.199-0.742,0.586-1.03c0.385-0.287,0.865-0.434,1.428-0.434c0.539,0,1,0.146,1.391,0.434
		C319.148,222.202,319.34,222.553,319.34,222.944 M319.34,225.902c0,0.401-0.191,0.744-0.58,1.032
		c-0.391,0.29-0.852,0.434-1.391,0.434c-0.563,0-1.043-0.144-1.428-0.434c-0.387-0.288-0.586-0.631-0.586-1.032
		c0-0.418,0.199-0.771,0.586-1.065c0.385-0.282,0.865-0.429,1.428-0.429c0.539,0,1,0.146,1.391,0.429
		C319.148,225.132,319.34,225.484,319.34,225.902 M318.777,211.176c0,0.339-0.166,0.631-0.5,0.88
		c-0.338,0.248-0.734,0.376-1.191,0.376c-0.455,0-0.852-0.128-1.188-0.376c-0.334-0.249-0.504-0.541-0.504-0.88
		c0-0.338,0.17-0.633,0.504-0.879c0.336-0.255,0.732-0.376,1.188-0.376c0.457,0,0.854,0.121,1.191,0.376
		C318.611,210.543,318.777,210.838,318.777,211.176 M322,210.369c0,0.336-0.16,0.631-0.482,0.877
		c-0.322,0.255-0.729,0.378-1.209,0.378c-0.457,0-0.844-0.123-1.166-0.378c-0.324-0.246-0.482-0.541-0.482-0.877
		c0-0.344,0.158-0.634,0.482-0.884c0.322-0.246,0.709-0.374,1.166-0.374c0.48,0,0.887,0.128,1.209,0.374
		C321.84,209.735,322,210.025,322,210.369 M324.818,212.638c0,0.417-0.195,0.772-0.586,1.06c-0.389,0.29-0.85,0.432-1.387,0.432
		c-0.563,0-1.041-0.142-1.428-0.432c-0.391-0.287-0.586-0.643-0.586-1.06c0-0.396,0.195-0.74,0.586-1.032
		c0.387-0.288,0.865-0.43,1.428-0.43c0.537,0,0.998,0.142,1.387,0.43C324.623,211.897,324.818,212.241,324.818,212.638
		 M327.555,214.851c0,0.418-0.191,0.764-0.582,1.046c-0.389,0.276-0.85,0.418-1.389,0.418c-0.564,0-1.031-0.142-1.406-0.418
		c-0.381-0.282-0.568-0.628-0.568-1.046c0-0.398,0.188-0.744,0.568-1.034c0.375-0.286,0.842-0.432,1.406-0.432
		c0.539,0,1,0.146,1.389,0.432C327.363,214.106,327.555,214.452,327.555,214.851 M330.295,217.062c0,0.396-0.195,0.742-0.584,1.027
		c-0.395,0.288-0.852,0.437-1.391,0.437c-0.535,0-1-0.148-1.387-0.437c-0.389-0.285-0.584-0.631-0.584-1.027
		c0-0.399,0.195-0.745,0.584-1.03c0.387-0.287,0.852-0.436,1.387-0.436c0.539,0,0.996,0.148,1.391,0.436
		C330.1,216.316,330.295,216.662,330.295,217.062 M333.031,219.27c0,0.399-0.195,0.74-0.584,1.03
		c-0.391,0.292-0.852,0.437-1.387,0.437c-0.539,0-1.004-0.145-1.389-0.437c-0.391-0.29-0.586-0.631-0.586-1.03
		c0-0.396,0.195-0.744,0.586-1.029c0.385-0.288,0.85-0.435,1.389-0.435c0.535,0,0.996,0.146,1.387,0.435
		C332.836,218.525,333.031,218.873,333.031,219.27 M335.77,221.48c0,0.399-0.195,0.742-0.582,1.035
		c-0.389,0.285-0.855,0.429-1.389,0.429c-0.539,0-1-0.144-1.391-0.429c-0.391-0.293-0.586-0.636-0.586-1.035
		c0-0.401,0.195-0.74,0.586-1.032c0.391-0.29,0.852-0.432,1.391-0.432c0.533,0,1,0.142,1.389,0.432
		C335.574,220.74,335.77,221.079,335.77,221.48 M334.602,223.754c0-0.339,0.168-0.633,0.504-0.884
		c0.338-0.251,0.73-0.369,1.188-0.369c0.459,0,0.855,0.118,1.188,0.369c0.338,0.251,0.504,0.545,0.504,0.884
		c0,0.357-0.166,0.654-0.504,0.896c-0.332,0.241-0.729,0.354-1.188,0.354c-0.457,0-0.85-0.113-1.188-0.354
		C334.77,224.408,334.602,224.111,334.602,223.754 M341.246,208.244c0,0.403-0.195,0.744-0.584,1.03
		c-0.391,0.287-0.852,0.434-1.387,0.434c-0.539,0-1.004-0.146-1.391-0.434c-0.389-0.286-0.584-0.627-0.584-1.03
		c0-0.413,0.195-0.768,0.584-1.056c0.387-0.29,0.852-0.437,1.391-0.437c0.535,0,0.996,0.146,1.387,0.437
		C341.051,207.477,341.246,207.831,341.246,208.244 M341.246,211.176c0,0.397-0.195,0.743-0.584,1.03
		c-0.391,0.29-0.852,0.432-1.387,0.432c-0.539,0-1.004-0.142-1.391-0.432c-0.389-0.287-0.584-0.633-0.584-1.03
		c0-0.401,0.195-0.742,0.584-1.032c0.387-0.287,0.852-0.436,1.391-0.436c0.535,0,0.996,0.148,1.387,0.436
		C341.051,210.434,341.246,210.774,341.246,211.176 M341.246,214.129c0,0.404-0.195,0.745-0.584,1.035
		c-0.391,0.29-0.852,0.432-1.387,0.432c-0.539,0-1.004-0.142-1.391-0.432c-0.389-0.29-0.584-0.631-0.584-1.035
		c0-0.412,0.195-0.77,0.584-1.055c0.387-0.29,0.852-0.437,1.391-0.437c0.535,0,0.996,0.146,1.387,0.437
		C341.051,213.359,341.246,213.717,341.246,214.129 M341.246,217.062c0,0.396-0.195,0.742-0.584,1.027
		c-0.391,0.288-0.852,0.437-1.387,0.437c-0.539,0-1.004-0.148-1.391-0.437c-0.389-0.285-0.584-0.631-0.584-1.027
		c0-0.399,0.195-0.745,0.584-1.03c0.387-0.287,0.852-0.436,1.391-0.436c0.535,0,0.996,0.148,1.387,0.436
		C341.051,216.316,341.246,216.662,341.246,217.062 M341.246,220.017c0,0.401-0.195,0.74-0.584,1.032
		c-0.391,0.29-0.852,0.432-1.387,0.432c-0.539,0-1.004-0.142-1.391-0.432c-0.389-0.292-0.584-0.631-0.584-1.032
		c0-0.42,0.195-0.772,0.584-1.063c0.387-0.287,0.852-0.429,1.391-0.429c0.535,0,0.996,0.142,1.387,0.429
		C341.051,219.244,341.246,219.597,341.246,220.017 M337.301,225.902c0-0.418,0.195-0.771,0.584-1.065
		c0.387-0.282,0.852-0.429,1.391-0.429c0.535,0,0.996,0.146,1.387,0.429c0.389,0.295,0.584,0.647,0.584,1.065
		c0,0.401-0.195,0.744-0.584,1.032c-0.391,0.29-0.852,0.434-1.387,0.434c-0.539,0-1.004-0.144-1.391-0.434
		C337.496,226.646,337.301,226.304,337.301,225.902 M337.863,222.944c0-0.339,0.16-0.629,0.482-0.865
		c0.322-0.241,0.725-0.359,1.209-0.359c0.459,0,0.852,0.118,1.188,0.359c0.338,0.236,0.504,0.526,0.504,0.865
		c0,0.362-0.166,0.661-0.504,0.896c-0.336,0.239-0.729,0.359-1.188,0.359c-0.484,0-0.887-0.12-1.209-0.359
		C338.023,223.605,337.863,223.307,337.863,222.944"/>
	<path fill="#19A2A3" d="M349.662,208.07c0,0.394-0.199,0.739-0.584,1.032c-0.391,0.285-0.854,0.427-1.391,0.427
		c-0.535,0-1-0.142-1.389-0.427c-0.391-0.293-0.586-0.639-0.586-1.032c0-0.404,0.195-0.745,0.586-1.035
		c0.389-0.287,0.854-0.432,1.389-0.432c0.537,0,1,0.145,1.391,0.432C349.463,207.325,349.662,207.666,349.662,208.07
		 M352.318,210.276c0,0.398-0.195,0.744-0.586,1.032c-0.387,0.29-0.863,0.432-1.428,0.432c-0.535,0-0.996-0.142-1.387-0.432
		c-0.391-0.288-0.586-0.634-0.586-1.032c0-0.415,0.195-0.769,0.586-1.061c0.391-0.287,0.852-0.432,1.387-0.432
		c0.564,0,1.041,0.145,1.428,0.432C352.123,209.508,352.318,209.861,352.318,210.276 M354.934,212.461
		c0,0.413-0.191,0.771-0.584,1.059c-0.387,0.294-0.852,0.436-1.387,0.436c-0.564,0-1.039-0.142-1.43-0.436
		c-0.389-0.288-0.584-0.646-0.584-1.059c0-0.401,0.195-0.744,0.584-1.034c0.391-0.285,0.865-0.432,1.43-0.432
		c0.535,0,1,0.146,1.387,0.432C354.742,211.717,354.934,212.06,354.934,212.461 M357.555,214.672c0,0.393-0.199,0.742-0.586,1.028
		c-0.389,0.287-0.854,0.434-1.389,0.434c-0.533,0-1-0.146-1.387-0.434c-0.395-0.286-0.586-0.636-0.586-1.028
		c0-0.398,0.191-0.744,0.586-1.032c0.387-0.285,0.854-0.434,1.387-0.434c0.535,0,1,0.148,1.389,0.434
		C357.355,213.928,357.555,214.273,357.555,214.672 M360.051,219.896c0,0.422-0.195,0.774-0.586,1.06
		c-0.391,0.288-0.852,0.437-1.387,0.437c-0.566,0-1.041-0.148-1.432-0.437c-0.387-0.285-0.586-0.638-0.586-1.06
		c0-0.395,0.199-0.745,0.586-1.03c0.391-0.288,0.865-0.432,1.432-0.432c0.535,0,0.996,0.144,1.387,0.432
		C359.855,219.151,360.051,219.502,360.051,219.896 M360.051,222.854c0,0.401-0.195,0.745-0.586,1.033
		c-0.391,0.289-0.852,0.431-1.387,0.431c-0.566,0-1.041-0.142-1.432-0.431c-0.387-0.288-0.586-0.632-0.586-1.033
		c0-0.398,0.199-0.737,0.586-1.029c0.391-0.285,0.865-0.432,1.432-0.432c0.535,0,0.996,0.146,1.387,0.432
		C359.855,222.116,360.051,222.455,360.051,222.854 M360.051,225.781c0,0.423-0.195,0.772-0.586,1.063
		c-0.391,0.293-0.852,0.437-1.387,0.437c-0.566,0-1.041-0.144-1.432-0.437c-0.387-0.29-0.586-0.64-0.586-1.063
		c0-0.396,0.199-0.742,0.586-1.027c0.391-0.29,0.865-0.437,1.432-0.437c0.535,0,0.996,0.146,1.387,0.437
		C359.855,225.039,360.051,225.385,360.051,225.781 M360.09,216.971c0,0.399-0.197,0.742-0.582,1.03
		c-0.391,0.29-0.854,0.434-1.395,0.434c-0.533,0-0.996-0.144-1.385-0.434c-0.391-0.288-0.586-0.631-0.586-1.03
		c0-0.417,0.195-0.768,0.586-1.046c0.389-0.278,0.852-0.42,1.385-0.42c0.572,0,1.037,0.144,1.412,0.437
		C359.902,216.23,360.09,216.572,360.09,216.971 M362.666,214.756c0,0.403-0.193,0.744-0.582,1.039
		c-0.387,0.287-0.867,0.429-1.432,0.429c-0.539,0-1-0.142-1.391-0.429c-0.385-0.295-0.576-0.636-0.576-1.039
		c0-0.395,0.191-0.74,0.576-1.025c0.391-0.293,0.852-0.434,1.391-0.434c0.564,0,1.045,0.141,1.432,0.434
		C362.473,214.016,362.666,214.361,362.666,214.756 M365.281,212.55c0,0.417-0.193,0.768-0.58,1.06
		c-0.391,0.285-0.855,0.437-1.389,0.437c-0.564,0-1.037-0.151-1.412-0.437c-0.377-0.292-0.564-0.643-0.564-1.06
		c0-0.399,0.197-0.745,0.586-1.032c0.391-0.286,0.85-0.432,1.391-0.432c0.533,0,0.998,0.146,1.389,0.432
		C365.088,211.805,365.281,212.15,365.281,212.55 M367.902,210.366c0,0.401-0.195,0.743-0.584,1.032
		c-0.391,0.29-0.855,0.437-1.391,0.437c-0.539,0-1-0.146-1.391-0.437c-0.389-0.289-0.584-0.631-0.584-1.032
		c0-0.415,0.195-0.772,0.584-1.06c0.391-0.29,0.852-0.434,1.391-0.434c0.535,0,1,0.144,1.391,0.434
		C367.707,209.594,367.902,209.951,367.902,210.366 M370.557,208.156c0,0.398-0.193,0.744-0.58,1.032
		c-0.391,0.29-0.869,0.431-1.434,0.431c-0.537,0-0.998-0.141-1.389-0.431c-0.387-0.288-0.582-0.634-0.582-1.032
		c0-0.395,0.195-0.74,0.582-1.03c0.391-0.285,0.852-0.43,1.389-0.43c0.564,0,1.043,0.145,1.434,0.43
		C370.363,207.416,370.557,207.762,370.557,208.156"/>
</g>
</svg>
